<svg id="レイヤー_1" data-name="レイヤー 1" xmlns="http://www.w3.org/2000/svg" viewBox="0 0 299.99 299.22"><defs><style>.cls-1{fill:#393332;}.cls-2{fill:#b5b5b6;}</style></defs><title>title</title><path class="cls-1" d="M543.77,259.93H535.6v-52h12.33a12.13,12.13,0,0,1,8.62,3.12q3.71,3.42,3.71,9.66v5.64q0,6.32-3.71,9.74a12.13,12.13,0,0,1-8.62,3h-4.16Zm0-29h4.16a4.43,4.43,0,0,0,3.05-.89q1.11-1,1.11-3.72v-5.64A5.15,5.15,0,0,0,551,217a4.43,4.43,0,0,0-3.05-.89h-4.16Z" transform="translate(-535.08 -207.33)"/><path class="cls-1" d="M639.38,260.53a12.11,12.11,0,0,1-8.61-3q-3.72-3.57-3.72-9.73V220.11q0-6.17,3.72-9.73a13.69,13.69,0,0,1,17.23,0q3.72,3.57,3.72,9.73v27.64q0,6.17-3.72,9.73A12.14,12.14,0,0,1,639.38,260.53Zm0-45a4.35,4.35,0,0,0-3,.89c-.75.69-1.12,1.93-1.12,3.71v27.64c0,1.78.37,3,1.12,3.71a4.35,4.35,0,0,0,3,.9,4.2,4.2,0,0,0,3-.9c.74-.64,1.11-1.88,1.11-3.71V220.11c0-1.83-.37-3.07-1.11-3.71A4.2,4.2,0,0,0,639.38,215.51Z" transform="translate(-535.08 -207.33)"/><path class="cls-1" d="M744.43,259.93h-8.32l-4.23-20.87h-3.72v20.87H720v-52h12.33a12.13,12.13,0,0,1,8.62,3.12q3.72,3.42,3.72,9.66v5.57q0,6.32-3.72,9.73a7.72,7.72,0,0,1-1.19,1Zm-7.95-39.22a5.15,5.15,0,0,0-1.11-3.72,4.43,4.43,0,0,0-3-.89h-4.16v14.79h4.16a4.38,4.38,0,0,0,3-.9c.74-.69,1.11-1.93,1.11-3.71Z" transform="translate(-535.08 -207.33)"/><path class="cls-1" d="M835.07,207.93v8.17h-8.32v43.83h-8.17V216.1h-8.32v-8.17Z" transform="translate(-535.08 -207.33)"/><path class="cls-2" d="M535.08,383V368.39a15.52,15.52,0,0,1,5.49-12,21.29,21.29,0,0,1,3-2.12c1.22-.71,2-1.15,2.27-1.3A25.5,25.5,0,0,0,549,351a7.62,7.62,0,0,0,2.53-5.65v-2.22c0-1.84-.37-3.07-1.11-3.72a4.26,4.26,0,0,0-3.05-.89,4.43,4.43,0,0,0-3,.89c-.74.7-1.11,1.93-1.11,3.72v4.53h-8.17v-4.53q0-6.31,3.71-9.74a13.74,13.74,0,0,1,17.24,0q3.71,3.42,3.71,9.74v2.22a15.22,15.22,0,0,1-1.41,6.47,16.36,16.36,0,0,1-4.09,5.42A17.29,17.29,0,0,1,551.9,359a22.38,22.38,0,0,1-2.48,1.34c-.6.3-1.21.62-1.82,1a9.23,9.23,0,0,0-1.75,1.26,7.55,7.55,0,0,0-2.6,5.8v6.38h16.57V383Z" transform="translate(-535.08 -207.33)"/><path class="cls-2" d="M641.76,383.54a12.13,12.13,0,0,1-8.62-3q-3.71-3.57-3.71-9.74V343.13q0-6.17,3.71-9.74a13.74,13.74,0,0,1,17.24,0q3.71,3.57,3.71,9.74v27.63q0,6.18-3.71,9.74A12.13,12.13,0,0,1,641.76,383.54Zm0-45a4.43,4.43,0,0,0-3,.89c-.74.7-1.11,1.93-1.11,3.72v27.63c0,1.79.37,3,1.11,3.72a4.43,4.43,0,0,0,3,.89,4.26,4.26,0,0,0,3-.89c.74-.65,1.11-1.88,1.11-3.72V343.13c0-1.84-.37-3.07-1.11-3.72A4.26,4.26,0,0,0,641.76,338.52Z" transform="translate(-535.08 -207.33)"/><path class="cls-2" d="M723.63,341.71l11.81-10.77h4.68v52H732V345.21l-8.32,7.57Z" transform="translate(-535.08 -207.33)"/><path class="cls-2" d="M818.2,366.75v4.09c0,1.78.38,3,1.12,3.71a4.36,4.36,0,0,0,3,.89,4.18,4.18,0,0,0,3-.89c.74-.64,1.12-1.88,1.12-3.71v-9.22a14.8,14.8,0,0,1-4.16.53,12.14,12.14,0,0,1-8.62-3q-3.72-3.42-3.72-9.73V343.2q0-6.17,3.72-9.73a13.69,13.69,0,0,1,17.23,0q3.72,3.57,3.72,9.73v27.64q0,6.17-3.72,9.73a13.69,13.69,0,0,1-17.23,0Q810,377,810,370.84v-4.09Zm8.33-17.38V343.2c0-1.83-.38-3.07-1.12-3.71a4.18,4.18,0,0,0-3-.9,4.36,4.36,0,0,0-3,.9c-.74.69-1.12,1.93-1.12,3.71v6.17c0,1.78.38,3,1.12,3.71a4.36,4.36,0,0,0,3,.89,4.18,4.18,0,0,0,3-.89C826.15,352.44,826.53,351.2,826.53,349.37Z" transform="translate(-535.08 -207.33)"/><path class="cls-1" d="M557.14,462.13H543.77V475.2h9.29v8.18h-9.29V506H535.6V454h21.54Z" transform="translate(-535.08 -207.33)"/><path class="cls-1" d="M618,506.56a12.14,12.14,0,0,1-8.62-3.05q-3.72-3.57-3.72-9.73V466.14q0-6.17,3.72-9.73a13.69,13.69,0,0,1,17.23,0q3.72,3.57,3.72,9.73v27.64q0,6.17-3.72,9.73A12.13,12.13,0,0,1,618,506.56Zm0-45a4.36,4.36,0,0,0-3,.9c-.74.69-1.11,1.93-1.11,3.71v27.64c0,1.78.37,3,1.11,3.71a4.36,4.36,0,0,0,3,.89,4.18,4.18,0,0,0,3-.89c.75-.64,1.12-1.88,1.12-3.71V466.14c0-1.83-.37-3.07-1.12-3.71A4.18,4.18,0,0,0,618,461.53Z" transform="translate(-535.08 -207.33)"/><path class="cls-1" d="M680.76,506V454h8.18v43.83h13.37V506Z" transform="translate(-535.08 -207.33)"/><path class="cls-1" d="M751.42,506V454h8.17v52Z" transform="translate(-535.08 -207.33)"/><path class="cls-1" d="M822.36,506.56a12.11,12.11,0,0,1-8.61-3.05q-3.72-3.57-3.72-9.73V466.14q0-6.17,3.72-9.73a13.69,13.69,0,0,1,17.23,0q3.72,3.57,3.72,9.73v27.64q0,6.17-3.72,9.73A12.14,12.14,0,0,1,822.36,506.56Zm0-45a4.35,4.35,0,0,0-3,.9c-.74.69-1.12,1.93-1.12,3.71v27.64c0,1.78.38,3,1.12,3.71a4.35,4.35,0,0,0,3,.89,4.2,4.2,0,0,0,3-.89c.74-.64,1.11-1.88,1.11-3.71V466.14c0-1.83-.37-3.07-1.11-3.71A4.2,4.2,0,0,0,822.36,461.53Z" transform="translate(-535.08 -207.33)"/></svg>