<svg id="レイヤー_1" xmlns="http://www.w3.org/2000/svg" viewBox="0 0 253.8 47.1"><style>.st0{fill-rule:evenodd;clip-rule:evenodd;fill:#fff}</style><circle class="st0" cx="57.1" cy="13.6" r="2.6"/><circle class="st0" cx="197.7" cy="13.6" r="2.6"/><path class="st0" d="M253 28.5c-1.8 0-3.7.4-5.4 0-.6-.1-.6-1-.3-1.4 1.2-1.6 1.1-3.6 1.1-3.6 0-2.6-2-5.4-4.5-6.3-1.2-.5-2.6-.5-3.8-.6-1.2-.1-2-1-2.4-2-.2-.5-.3-.9-.3-1.4V13c-.1-1.5-1.1-1.4-1.1-1.4h-2.1c-1.7 0-1.5 1.8-1.5 1.8v10.4c0 2.5-2 4.5-4.5 4.5h-.4c-3.9.1-2.9.1-4-.1s-2.1-.3-3.4-1.7c-1.2-1.4-.7-2-.5-2.4.3-.4 1.2-.7 1.2-.7 3.8-1 3.9-5.7 3.9-5.7 0-2.8-2.1-4.6-2.1-4.6-4.2-3.9-7.9-1.6-8.4-1.6-.6 0-.5-.5-.5-.5V2.3c0-1.7-1.1-1.7-1.1-1.7h-2.1c-1.6 0-1.5 1.9-1.5 1.9v21.3c0 2.5-2 4.5-4.5 4.5s-4.4-2-4.4-4.5v-3.4c0-1.8-1.1-1.7-1.1-1.7h-2.1c-1.7 0-1.5 1.8-1.5 1.8v3.3c0 2.5-2 4.5-4.5 4.5h-3.3c-2.5 0-4.5-2-4.5-4.5V13.7h1.5c1.8 0 3.7-.4 3.7-.4 3.3-1.1 4.6-3.3 5.2-5 .7-1.7-.3-2-.3-2H190c-1.2.1-1.2 1.2-1.2 1.2-.3 1.5-.8 2.4-.8 2.4-1.2 1.9-2.2 1.9-3.2 1.9H183V2.3c0-1.7-1.1-1.7-1.1-1.7h-2.1c-1.7 0-1.5 1.9-1.5 1.9v9.1h-4.4c-.4 0-.7.3-.7.7v.6c0 .4.3.7.7.7h4.4v10.2c0 2.5-2 4.4-4.4 4.5-2.5 0-4.4-2-4.4-4.5V13.2c0-1.8-1.1-1.7-1.1-1.7h-2.1c-1.7 0-1.5 1.9-1.5 1.9v11.4c0 1.7-1.4 3.1-3.1 3.1-1.7 0-3.1-1.4-3.1-3.1v-8.1c0-2.3 2.6-3.2 4.5-3.4 1.5-.3.8-1 .8-1-.6-.1-4.5-2.3-8 1 0 0-2.1 1.9-2.1 4.6v6c0 2.5-2 4.5-4.5 4.5s-4.4-2-4.4-4.5v-7.1c-.1-2.4-2.3-4.3-4.3-5.3-2.1-1-4.3-.4-6.3.6-.6.3-1.1.6-1.6.9-.5.4-1.1.2-1.6-.1-.5-.3-.9-.8-1.4-1.1-1.3-.7-2.9-.9-4.3-.7-.5.1-1 .2-1.4.4-.5.2-1.1.6-1.1.6-.4-1.1-1.3-1-1.3-1h-2.1c-1.4 0-1.5.9-1.5.9v12.5c0 2.5-.8 4.5-4.5 4.5h-1.4c-.7 0-1.4-.1-2.1-.2-.6-.1-1.3-.1-1.8-.3-.8-.3-.5-1.1-.1-1.5 1.3-1.4 1.2-3.4 1.2-3.4v-5.7c0-2.8-2.1-4.6-2.1-4.6-.9-.9-1.8-1.4-2.7-1.8l-.3-.1c-.6-.2-4.6-2-8.7 1.9 0 0-2.1 1.9-2.1 4.6v6c0 .6-.1 1.3-.4 1.9-1.1 2.6-4.2 2.3-6.5 2.4-1 0-2.1.3-3 .7-4 1.5-3.8 5-3.8 5v7.2c0 2.2-1.4 3.4-3.1 3.4-1.7 0-3.1-1.4-3.1-3.1v-6.6s-.1-3.5 3.9-4.6c2.1-.6 4.1-1.5 4.1-1.5 3.2-1.2 2.9-5.2 2.9-5.2v-5.7c0-2.8-2.1-4.6-2.1-4.6-.9-.9-1.8-1.4-2.7-1.8l-.3-.1c-.6-.2-4.6-2-8.7 1.9 0 0-2.1 1.9-2.1 4.6v6c0 2.5-2 4.5-4.5 4.5s-4.4-2-4.4-4.5v-3.4c0-1.8-1.1-1.7-1.1-1.7h-2.1c-1.6 0-1.5 1.8-1.5 1.8v3.3c0 2.5-2 4.5-4.5 4.5s-4.5-2-4.5-4.5v-6c0-2.8-2.1-4.6-2.1-4.6-4.2-3.9-7.9-1.6-8.4-1.6-.6 0-.5-.5-.5-.5V1.7c0-1.8-1.1-1.7-1.1-1.7h-2.3C29.8 0 30 1.8 30 1.8v21.9c0 2.5-2 4.5-4.5 4.5s-4.4-2-4.4-4.5v-1.1-4.1c0-2.7-3.3-1.7-4.2-1.6-.9.1-2.9.2-4.4-.6-1.5-.8-1.8-2.5-2.2-3.9-.4-1.4-2.6-1.3-2.6-1.3s-2.1.1-2.1 2.5v9.8s0 5.1-5.4 5.1c0 0 0 1 1.7 1.3 0 0 6.6 1 8.5-6 0 0 .2-1.1.2-2.1v-1.8s-.4-.9.5-.9H15s1.1.1 1.2 1c.1.8 0 3.5.1 4.4.1.9 1 4.8 6.9 5.6 0 0 1.6.1 2 .1 0 0 2 .1 3-.3s1.1-.5 2.4-.1c1 .3 2.2.6 3.1.1.4-.2.7-.4.8-.9.1-.5.1-1 .1-1.6V16.6c0-1.7 1.4-3.1 3.1-3.1 1.7 0 3.1 1.4 3.1 3.1 0 0 0 6.9.2 7.8.1.9 1 4.8 6.9 5.6.7 0 1.3.1 2 .1 2.2 0 4.5-.3 6.4-1.5.7-.4.9-.3.9-.3.6.2 1.1.4 1.7.6.8.3 1.5.6 2.3.8 1.1.3 2.2.5 3.4.5 3.6 0 5.3-1.1 5.3-1.1 3.5-2.1 3.4-5.2 3.4-5.2v-7.3c0-1.7 1.4-3.1 3.1-3.1 1.7 0 3.1 1.4 3.1 3.1v7.9c-.1.7-.5 1.2-1 1.8-1 1.1-2.6 1.4-4 1.8-1.1.3-2.2.7-3.3 1.3-2.8 1.2-2.7 5.1-2.7 5.1v5.7c0 2.8 2.1 4.6 2.1 4.6.9.9 1.8 1.4 2.7 1.8l.3.1c.6.2 4.6 2 8.7-1.9 0 0 2.1-1.9 2.1-5.1v-5.8s.1-2.6 2.1-3.2c1.6-.3 3.3-.4 4.9-.5.5 0 .9-.1 1.4-.2.6-.1 1.1-.4 1.6-.7 0 0 1-.8 1.7-.4 1.2.6 2.3 1.4 3.6 1.7 1.1.2 2.3.2 3.5 0 .5 0 .5 0 .9-.1h1c.2 0 .5.1.7.1 1.4.1 2.9.2 4.3.2 1.3 0 2.3 0 3.6-.1.7 0 1.6-.1 2.3-.2 1-.2 1.1-.5 2.4-.1 1 .3 2.2.6 3.1.1.4-.2.7-.4.9-.9.1-.5.1-1.1.1-1.6V16.7c0-1.7 1.4-3.1 3.1-3.1 1.7 0 3.1 1.4 3.1 3.1V29c0 1.8 1.1 1.7 1.1 1.7h2.1c1.7 0 1.5-1.8 1.5-1.8V16.6c0-1.7 1.4-3.1 3.1-3.1 1.7 0 3.1 1.4 3.1 3.1V20c.1.8 0 3.5.1 4.4.1.9 1 4.8 6.9 5.6 0 0 1.5.2 2.6.2h.3c2.9 0 5.1-1.1 5.1-1.1s.9-.6 1.6-.3c.7.3 1.6.7 1.6.7 3.2 1.6 6.1.3 6.4.2.5-.2 1-.6 1.5-.7 1-.2 2 0 3 .3.6.2 1.3.4 1.9.6.9.3 1.9.4 2.8.4 1.6 0 3.1-.3 4.6-.9 1.1-.4 2-.9 3.2-.6 1 .2 1.9.6 2.8.8 2.5.7 4.3.5 6.8.4 2.1 0 4.3-.4 6-1.5.7-.4.9-.3.9-.3.5.2 1.1.4 1.6.6.8.3 1.5.7 2.3.9 1.1.3 1.4.3 2.5.3 0 0 2 .1 3-.3s1.1-.5 2.4-.1c1 .3 2.2.6 3.1.1.4-.2.7-.4.9-.9.1-.5.1-1 .1-1.6V16.6c0-1.7 1.4-3.1 3.1-3.1 1.7 0 3.1 1.4 3.1 3.1 0 0 .1 2.7-1 4.2 0 0-.9 1.4-2.4 1.7 0 0-1.7-.4-2.2 1.1-.5 1.5.8 4.3 3.4 5.5 0 0 3.1 1.7 7.6 1.3 0 0 3.2 0 4.5-.2 1.3-.1 1.5-.2 1.5-.2 5.7-1.6 5.7-6.3 5.7-6.3v-3.6s-.2-1 .7-1c.9 0 2.4.3 2.4.3 1.7.4 3.1 2.1 3.1 4.1 0 0 .2 1.9-.8 3.3 0 0-.6 1.2-2.1 1.4 0 0-2.7.3-2.7 1.2 0 0-.5 1 3 1.1 3.5.1 5.4.1 6.3 0 1.3-.1 2.7.1 4-.1.8-.1 1.8-.2 2.4-.9.9-.7.5-1-.2-1zm-148.8-3.8c0 1.7-1.4 3.1-3.1 3.1-1.7 0-3.1-1.4-3.1-3.1v-8.1c0-1.7 1.4-3.1 3.1-3.1 1.7 0 3.1 1.4 3.1 3.1V24.7z"/></svg>