<svg id="レイヤー_1" data-name="レイヤー 1" xmlns="http://www.w3.org/2000/svg" viewBox="0 0 720.92 240.04"><defs><style>.cls-1{fill:#feffff;}.cls-2{fill:#252223;}.cls-3{fill:#ea812a;}</style></defs><title>amazon</title><rect class="cls-1" width="720.92" height="240.04" rx="17.01" ry="17.01"/><path class="cls-2" d="M678.22-348.95c8.94-13.47,20.66-17.8,33-12.5,7.31,3.15,11.55,8.68,12.86,16.56,1.28,7.64.54,15.29.54,22.94,0,14.5-.14,29,.09,43.49.07,4.67-1.63,6.3-6.15,6a93.72,93.72,0,0,0-11.49,0c-3.87.19-5.26-1.29-5.21-5.25.17-16,.08-32,0-48a53.4,53.4,0,0,0-.37-7.48c-.82-5.87-3.37-8.48-8.33-8.92-5.55-.49-9.78,2.22-11.51,7.54a36.31,36.31,0,0,0-1.33,11.37c0,14.83-.14,29.67.08,44.49.07,4.82-1.58,6.68-6.41,6.26a86.37,86.37,0,0,0-11.49,0c-3.93.18-5.25-1.56-5.22-5.38.12-16,.09-32,0-48a46.78,46.78,0,0,0-.79-8.93c-.9-4.52-3.65-7.53-8.5-7.76s-8.38,1.88-10.12,6.53c-1.61,4.27-1.86,8.76-1.87,13.27,0,14.83-.13,29.66.08,44.49.06,4.35-1.31,6.11-5.72,5.79a84.87,84.87,0,0,0-11.5,0c-4.33.27-5.9-1.44-5.87-5.79.16-18.33.07-36.66.07-55,0-7.5.16-15-.06-22.5-.13-4.6,1.74-6.36,6.24-6a72.41,72.41,0,0,0,10,0c4.36-.29,6.2,1.51,5.74,5.85a18,18,0,0,0,.37,5.36c5.06-8.39,12-13,21.9-12.9C667.57-363.39,673.92-357.83,678.22-348.95Z" transform="translate(-420.34 411.99)"/><path class="cls-2" d="M810.81-319.53c0,4.83.1,9.66,0,14.49-.15,5.88,1.19,11.25,5.15,15.73,2.56,2.9,2.23,5.16-.83,7.47a100.12,100.12,0,0,0-8.77,7.41c-3.25,3.12-5.9,2.63-9-.33-2.49-2.39-3.87-7.14-7-7.14-2.62,0-5.08,3.93-7.89,5.66-9.22,5.67-19.21,6.5-29.25,3-9.33-3.28-13.64-10.76-14.36-20.34-.9-11.95,3.09-21.64,13.82-27.81,9.39-5.39,20-6.06,30.41-7,3.45-.31,4.39-1.22,4.31-4.63-.23-8.59-2.48-12.36-8.82-13.55-6.81-1.29-12.8,2-15.33,8.91-1.15,3.17-2.84,4.09-6,3.55-3.94-.67-7.91-1.16-11.89-1.51-3.3-.3-4.28-1.82-3.52-5,1.87-7.85,5.93-14.17,13.08-18,13.27-7.14,27.06-7.62,41-2.15,10.66,4.2,14.71,12.87,14.87,23.77C810.87-331.19,810.81-325.36,810.81-319.53ZM787.33-308.8c.11-6.34.11-6.71-1.94-6.7-6.72,0-13.49.55-18.48,5.8-4.29,4.51-4.92,10-2.85,15.79,1.36,3.8,4.21,6.09,8.24,6.17,6,.11,9.83-3.41,12.45-8.48C786.79-300.16,787.31-304.43,787.33-308.8Z" transform="translate(-420.34 411.99)"/><path class="cls-2" d="M594.26-321.17c0,5,.17,10,0,15-.27,6.43,1.07,12.21,5.51,17.08,2.24,2.45,2,4.67-.65,6.79q-5.07,4.05-9.91,8.4c-2.83,2.54-5.33,2.22-7.77-.46s-4.69-7.27-7.34-7.51-5.56,4.15-8.65,6A32.79,32.79,0,0,1,537-273.12c-17.23-6-20.36-32.32-5.57-44.88,7.75-6.58,17.26-8.26,26.88-9.62,1.65-.23,3.56.09,4.91-.64,2.5-1.36,7.3,2.47,7.72-3.31.58-8.15-1.93-13-7.42-14.73-6.48-2-14.13,1.31-16.39,7.77-1.4,4-3.39,5.2-7.41,4.29a68.19,68.19,0,0,0-10.39-1.33c-3.77-.26-5-1.89-4-5.56,2.06-7.37,5.87-13.54,12.65-17.25,13.89-7.58,28.28-8.05,42.75-1.79,8.42,3.64,12.87,10.38,13.24,19.52.26,6.49.05,13,.05,19.48ZM571-309.67c-1.63-1.25,2.4-5.53-2.19-5.77-6.52-.34-13,.54-18.07,5.4-4.57,4.39-5.11,9.9-3.41,15.65,1.18,4,4.08,6.55,8.36,6.65,6,.15,9.78-3.28,12.51-8.3C570.41-300.13,570.8-304.55,571-309.67Z" transform="translate(-420.34 411.99)"/><path class="cls-2" d="M1010.57-349.56c.55-.93,1.07-1.87,1.65-2.78,5.81-9.24,14.44-12.83,25.29-10.54,9.87,2.09,15.78,8.61,17.41,19.34,1.59,10.44.66,21,.8,31.44.15,11.33-.07,22.66.09,34,.06,4-1.25,5.87-5.47,5.63s-8.33-.18-12.49,0c-3.7.14-4.95-1.48-4.93-5.1.12-15.49.1-31,0-46.48a67.5,67.5,0,0,0-.78-9.94c-.7-4.49-3-7.8-7.9-8.43-4.65-.61-8.07,1.55-10.42,5.41-2.88,4.73-3.29,10.06-3.31,15.42,0,14,0,28,0,42,0,7.05,0,7.08-6.85,7.09-3.67,0-7.34-.11-11,0s-5.07-1.32-5.06-5q.12-39.74,0-79.48c0-3.33,1.21-4.93,4.69-4.8,4,.15,8,.2,12,0s5.4,1.63,5.13,5.39c-.15,2.2,0,4.42,0,6.64Z" transform="translate(-420.34 411.99)"/><path class="cls-3" d="M732.4-205.95c-45.27-.65-91-16.59-130.33-49.86-2-1.68-6.56-3.24-4.07-6.7,2.33-3.25,5.38.2,7.84,1.47,77.83,40.39,157.72,45.64,239.8,14.24.94-.35,1.89-.67,2.8-1.06,2.81-1.18,5.43-1,6.93,1.85s-.79,4.65-2.83,6.08c-18.09,12.65-38.1,21.1-59.35,26.66C775.26-208.57,757-205.93,732.4-205.95Z" transform="translate(-420.34 411.99)"/><path class="cls-2" d="M900.59-316.93c0-10.14,1.75-19.89,6.84-28.8,13.19-23.11,46.33-24.27,60-1.43,11.49,19.24,11.78,39.7.5,59.34-7.28,12.68-19.21,18.18-33.76,16.84-14.08-1.3-23.48-9.36-29-22.1A58.85,58.85,0,0,1,900.59-316.93Zm24.78.15c.3,6,.19,13.17,2.55,20.06,2,5.9,5.43,8.78,10.18,8.75s8.32-2.88,10.47-8.53a19.94,19.94,0,0,0,1.17-3.81c1.89-11.93,2.1-23.87-.77-35.68-1.74-7.18-5.31-10.32-11-10.3-5.3,0-9.25,3.71-11,10.51C925.49-329.93,925.42-323.93,925.37-316.78Z" transform="translate(-420.34 411.99)"/><path class="cls-2" d="M862-343.72c-9.42,0-17.71-.13-26,.06-3.87.09-5.35-1.22-5.24-5.2.4-15.08-2.23-13,12.8-13.11,14-.09,28,.1,42-.09,4.31-.06,5.74,1.43,5.93,5.77a24.93,24.93,0,0,1-5.26,17.12c-8.32,11-16.13,22.45-24.13,33.72-.64.9-1.12,1.9-1.94,3.32,6.36.7,12.34.74,18.1,2.32A57.73,57.73,0,0,1,889-295.88a6.51,6.51,0,0,1,4,6.36c-.06,3,0,6,0,9,0,5.81-1.29,6.65-6.51,4.35a64.58,64.58,0,0,0-26.65-5.65A63.62,63.62,0,0,0,833.72-276c-4.73,2.13-5.62,1.31-6.12-3.84a35.6,35.6,0,0,1,8.09-27.25C844.84-318.48,852.82-330.81,862-343.72Z" transform="translate(-420.34 411.99)"/><path class="cls-3" d="M848.94-257.95c-4.94-.14-11,.94-17.13,1.51-1.61.15-3.63,1-4.24-1.17-.54-1.89,1.28-2.89,2.68-3.76a50.61,50.61,0,0,1,21-7.24,66.22,66.22,0,0,1,23.77,1c4,1,6,3.15,5.8,7.37-.68,15.19-5.9,28.5-16.29,39.69a16.93,16.93,0,0,1-2.69,2.21c-1.15.82-2.49,1.23-3.65.18s-.53-2.16-.08-3.25a187.53,187.53,0,0,0,7.17-19.65c4.06-14.35,2.22-16.86-12.64-16.88Z" transform="translate(-420.34 411.99)"/></svg>