<svg id="レイヤー_1" data-name="レイヤー 1" xmlns="http://www.w3.org/2000/svg" viewBox="0 0 100 100"><defs><style>.cls-1{fill:#3c3c3c;}.cls-2{fill:#282828;}</style></defs><title>arrow2</title><path class="cls-1" d="M702,273.75A49.25,49.25,0,1,1,652.75,323,49.3,49.3,0,0,1,702,273.75m0-.75a50,50,0,1,0,50,50,50,50,0,0,0-50-50Z" transform="translate(-652 -273)"/><path class="cls-2" d="M722,300.88l-20,46.53-20-46.53,14.2,6.25a14.59,14.59,0,0,0,11.68,0l14.2-6.25m5.77-5.82-21.18,9.32a11.53,11.53,0,0,1-9.26,0l-21.18-9.32L702,355l25.81-59.94Z" transform="translate(-652 -273)"/></svg>