<svg id="レイヤー_1" data-name="レイヤー 1" xmlns="http://www.w3.org/2000/svg" xmlns:xlink="http://www.w3.org/1999/xlink" viewBox="0 0 695.03 237.02"><defs><style>.cls-1{fill:#fff;}.cls-2{fill:none;stroke-miterlimit:10;stroke-width:6px;stroke:url(#名称未設定グラデーション_23);}</style><linearGradient id="名称未設定グラデーション_23" x1="347.52" y1="237.02" x2="347.52" gradientUnits="userSpaceOnUse"><stop offset="0" stop-color="#37bef0"/><stop offset="0.5" stop-color="#654d9d"/><stop offset="1" stop-color="#da4774"/></linearGradient></defs><title>itunes</title><path class="cls-1" d="M944.91,437.26A123.09,123.09,0,0,1,931,462.14,70.17,70.17,0,0,1,918.93,476c-4.47,3.72-9.41,6.32-15.43,6.16A27,27,0,0,1,892.42,479a32,32,0,0,0-10.74-3.53,71.29,71.29,0,0,0-10.54-.15c-5.16.25-9.78,2.44-14.41,4.51a23.52,23.52,0,0,1-10.89,2.4,23.22,23.22,0,0,1-12.3-4.57c-5.09-3.66-9.06-8.37-12.71-13.38A112.77,112.77,0,0,1,805.32,435a104.22,104.22,0,0,1-4.47-17.65,78,78,0,0,1-.87-18.44c.79-10.38,3.46-20.17,10.16-28.49,5.59-6.94,12.31-12.31,20.78-15.37a34.4,34.4,0,0,1,13.51-2.22,44.89,44.89,0,0,1,12.71,2.66c3.68,1.3,7.37,2.59,11.12,3.65,6,1.67,11.83,1,17.61-1.18a122.66,122.66,0,0,1,12.48-4.05,34.6,34.6,0,0,1,12.84-.85c12,1.49,21.12,7.75,28.87,16.75-13.31,8.08-20.24,19.68-18.95,35.24C922.39,420.4,930.68,431.1,944.91,437.26Z" transform="translate(-745.01 -281.52)"/><path class="cls-1" d="M904.37,313.22c0,2.85.33,5.72-.06,8.48a38.65,38.65,0,0,1-8.88,19.65,34.62,34.62,0,0,1-20.63,12.19c-1.17.22-2.4.16-3.58.32-1,.14-1.36-.38-1.37-1.18a50.29,50.29,0,0,1,.12-6.95,37,37,0,0,1,9.18-19.35,40.37,40.37,0,0,1,14.09-10.21,41.27,41.27,0,0,1,10.53-3A3.07,3.07,0,0,1,904.37,313.22Z" transform="translate(-745.01 -281.52)"/><path class="cls-1" d="M1130.47,408.86h22.42c.32,23.86-.38,47.72.47,71.64h-19.18c-.35-3.3-.7-6.62-1.09-10.25a8.74,8.74,0,0,0-1,.93,24.58,24.58,0,0,1-14.35,10c-6.94,1.79-13.7,1.36-20.11-2-5-2.63-8.07-6.92-10.06-12.1a38.88,38.88,0,0,1-2.32-10.85c-.13-1.68-.23-3.36-.23-5q0-20.42,0-40.83c0-.47,0-.94.08-1.46h22.24v1.47c0,12.37,0,24.73,0,37.1,0,3.88.29,7.78,2.17,11.32s4.73,5.15,8.81,5.34c6.21.3,11.14-5,12-9.76a15,15,0,0,0,.05-2.51v-41.8C1130.39,409.69,1130.44,409.34,1130.47,408.86Z" transform="translate(-745.01 -281.52)"/><path class="cls-1" d="M1238.76,480.52h-22.15v-1.46q0-18.56,0-37.11c0-3.56-.17-7.11-1.62-10.48a10.26,10.26,0,0,0-9.42-6.18c-8.33-.28-12.73,7.75-12.48,13.63s.05,11.49.05,17.23v24.37h-22.48V408.85c.07,0,.38,0,.69,0,5.67,0,11.33,0,17,0,.81,0,1.23.1,1.29,1.06.16,2.31.44,4.62.69,6.92.06.63.18,1.24.31,2.07a4.29,4.29,0,0,0,.72-.6,24.83,24.83,0,0,1,16-10.36c8.46-1.59,16.45-.39,23,5.76,3.83,3.58,5.95,8.17,7.16,13.22a44.41,44.41,0,0,1,1.21,10.59q0,20.91,0,41.81Z" transform="translate(-745.01 -281.52)"/><path class="cls-1" d="M1320.07,451.75h-46.41a36.44,36.44,0,0,0,1.2,4.23c1.84,4.3,5.41,6.62,9.65,8.06,5,1.7,10.07,1.56,15.2,1.24a64.25,64.25,0,0,0,13.61-2.5,2.16,2.16,0,0,1,.59,0c.95,4.91,1.9,9.8,2.9,14.9a60.2,60.2,0,0,1-6.07,1.93,121.7,121.7,0,0,1-13.06,2.26,64,64,0,0,1-12.22,0c-10.07-1-19-4.46-25.54-12.73a34.29,34.29,0,0,1-6.57-15.4,42.4,42.4,0,0,1-.54-12.2c1.31-11.95,6-22.11,16.4-28.93a29.08,29.08,0,0,1,13.4-4.81,59.35,59.35,0,0,1,10.65-.31,28,28,0,0,1,15.76,6.35c6.09,5.1,9.19,11.84,10.81,19.45a58.87,58.87,0,0,1,.81,13.77C1320.6,448.59,1320.28,450.09,1320.07,451.75Zm-19.89-15.22c-.11-1.24-.14-2.4-.35-3.52-.65-3.43-2-6.51-4.84-8.71-4.6-3.52-13.07-3.09-17.25,2.2a19.59,19.59,0,0,0-4.06,10Z" transform="translate(-745.01 -281.52)"/><path class="cls-1" d="M1082,381.86c0,.48.06.87.06,1.26,0,5.31,0,10.61,0,15.91,0,1.08-.24,1.43-1.39,1.43-8.07-.06-16.14,0-24.21,0h-1.33v80.08h-22.45V402c0-1.56,0-1.56-1.54-1.56h-24.89V381.86Z" transform="translate(-745.01 -281.52)"/><path class="cls-1" d="M1377.21,426.67a36.94,36.94,0,0,0-11.45-3.76c-3.17-.48-6.38-.74-9.41.75-3.91,1.92-4.49,6.51-.84,8.86a46.79,46.79,0,0,0,8.77,4c4.39,1.67,8.72,3.39,12.43,6.36a18.87,18.87,0,0,1,7.15,12c2,11.93-4.4,21.05-15.07,24.8a46.47,46.47,0,0,1-19.13,2.39,54.74,54.74,0,0,1-16.72-3.66c-3-1.21-2.93-1.21-2.14-4.33,1.08-4.26,2.13-8.53,3.19-12.76,2.15.91,4.27,1.91,6.47,2.7a37.29,37.29,0,0,0,13.57,2.53,12.55,12.55,0,0,0,5.9-1.33,5.34,5.34,0,0,0,.52-9.23,37.7,37.7,0,0,0-7.14-3.32c-4.91-1.77-9.73-3.67-13.84-7-3.57-2.86-6.35-6.3-7.22-10.89a20.7,20.7,0,0,1,4.16-17.3c3.9-5,9.21-7.71,15.25-9.15a44.08,44.08,0,0,1,13.46-.85,47.6,47.6,0,0,1,15.07,3.42c.78.33,1,.64.74,1.51C1379.65,417.11,1378.46,421.83,1377.21,426.67Z" transform="translate(-745.01 -281.52)"/><path class="cls-1" d="M972.84,408.89h22V480.5h-22Z" transform="translate(-745.01 -281.52)"/><path class="cls-1" d="M983.88,377.54a11.53,11.53,0,0,1,11.31,8.11,11,11,0,0,1-8.78,14.12c-3.82.67-7.35.14-10.4-2.32a10.43,10.43,0,0,1-3.87-9.72c.51-4.76,3-8.12,7.76-9.46A40.43,40.43,0,0,1,983.88,377.54Z" transform="translate(-745.01 -281.52)"/><rect class="cls-2" x="3" y="3" width="689.03" height="231.02" rx="17.01" ry="17.01"/></svg>