<svg id="レイヤー_1" data-name="レイヤー 1" xmlns="http://www.w3.org/2000/svg" viewBox="0 0 199.91 66.99"><title>logo</title><g id="_2WHU5a.tif" data-name="2WHU5a.tif"><path d="M719.53-113.88c.54,1.27,1,2.55,1.62,3.8.4.83,1,1.59,1.38,2.41s.68,1.59,1,2.39h-.13a39.24,39.24,0,0,1-5.28-8l.38,1.66-.17,0a9.32,9.32,0,0,1-.49-1.61,5.21,5.21,0,0,0-.59-1.77c-1-1.85-1.84-3.76-2.7-5.68-.54-1.23-1-2.51-1.5-3.75-.08-.19-.34-.44-.52-.44-1,0-2.1.11-3.13.18v1c-.27-1-.51-1.15-1.32-1.18l-2,0c-1.69,0-3.38,0-5.06-.09-.81,0-.93,0-.89.84s.16,1.91.22,2.86c0,.6.06,1.2.09,1.8l-.3,0-.81-3.81h-.06l.72,6.88-.17,0a2,2,0,0,1-.16-.37c-.25-1-.51-2-.73-3-.36-1.65-.69-3.3-1-4.94-.06-.32-.14-.62-.58-.59s-.43.34-.43.66c0,1.15,0,2.29,0,3.44a3.15,3.15,0,0,1,0,.43.91.91,0,0,1-.28-.56c-.14-1.07-.29-2.14-.41-3.22,0-.51-.18-.79-.81-.81-2-.07-4-.22-5.92-.32-.44,0-.88,0-1.38,0l.46.72-.15.15-1.23-.94a2.94,2.94,0,0,0,.09.54c.31.89.67,1.75.93,2.64a3.8,3.8,0,0,1-.76,3.63,1.13,1.13,0,0,1-.84.37,2.43,2.43,0,0,1-2.16-1.73c-.43-1.19-.75-2.42-1.1-3.63-.15-.55-1.17-1.57-1.65-1.49a34.32,34.32,0,0,0-3.91.81,3.65,3.65,0,0,1-3.16-.18,2.91,2.91,0,0,0-2.38-.46,11.94,11.94,0,0,0-5,2.65.81.81,0,0,0-.21.33,3.48,3.48,0,0,1-.22.71,2,2,0,0,0-.47,1.92l-1-.55-.68,1.49h1.79a1.54,1.54,0,0,1-.74.24c-1,.15-2,.31-3,.44a3.75,3.75,0,0,1-1.11,0c-.62-.12-1.21-.33-1.88-.51a51.08,51.08,0,0,1,1.18,6.24l-.18.06-.9-1.39-.29.27L657-118.6l-.29.77a5.18,5.18,0,0,0-.58-1.47,5.43,5.43,0,0,0-1.35-.85l1.2.13c-.82-1.73-1.56-3.35-2.36-4.94a.8.8,0,0,0-.65-.32c-1.2.06-2.4.18-3.61.28-.69.06-1.38.14-2.16.22,0,1.54,0,3,0,4.49a13.27,13.27,0,0,1-.81,4.35l-1.13-1.46a38.17,38.17,0,0,1-.59,7.33c-.35-1.28-.73-2.48-1-3.7a45.82,45.82,0,0,1-.89-9.49c0-.37,0-.74,0-1.19l-6.94.61c.49,1.35,1,2.59,1.41,3.84l-.18.08c-.78-.59-.9-1.94-2.16-2l-.09.43c-.36-.5-.69-.9-1-1.34a1.21,1.21,0,0,0-1.48-.55q-2.9.64-5.79,1.22c-1.94.4-1.95.38-1.69,2.37.17,1.28.39,2.55.5,3.83,0,.59.2,1.28-.5,1.78-.07-.38-.11-.7-.18-1a11.86,11.86,0,0,0-.65-2.64,6.57,6.57,0,0,1-.75-2.41,7.85,7.85,0,0,0-.22-.94c-.3,0-.57,0-.83.09l-3.28.44c-2.25.3-4.55.35-6.72,1.19a4.63,4.63,0,0,1-2,.28c-1.48-.12-1.95-1.22-1.11-2.4a.46.46,0,0,0,.11-.22c0-.55.37-.63.8-.73.79-.17,1.57-.4,2.34-.62a3.38,3.38,0,0,0,.52-.22c.89-.47,1.79-.93,2.67-1.42,1.06-.57,2.1-1.16,3.15-1.75l-.1-.28c-.94.14-1.87.28-2.81.4a1.44,1.44,0,0,1-.71-.09,1.33,1.33,0,0,0-1.52.36,10.13,10.13,0,0,1-1.51,1.19c-1.31.8-2.66,1.54-4,2.31a2.22,2.22,0,0,1-.39.12,18.51,18.51,0,0,1,1.25-1.77c.4-.52.76-1.06,1.2-1.69-8.48-.18-16.57,1.47-24.81,2.39a50.75,50.75,0,0,1,1.25,9.19,21.14,21.14,0,0,1-3.69-8.82c-.73.11-1.36.24-2,.31-.48.05-.7.19-.65.74s-.21,1-.9,1.07l-.36-1.42-5.85,1.48.4,3.13-.22.05-.84-2-.27.36A4,4,0,0,1,572-120c-.16-.53-.43-.65-1-.51-2.5.62-5,1.18-7.53,1.75-3.84.87-7.69,1.71-11.53,2.62-2.4.57-4.77,1.27-7.17,1.84a7.86,7.86,0,0,0-3.37,1.35,24.26,24.26,0,0,1-2.7,1.9c-1.12.7-2.27,1.32-3.41,2l-.12-.18,2.69-2.4a1.23,1.23,0,0,0-.58.17,33.31,33.31,0,0,1-3.58,1.58c-1.92.6-3.89,1-5.85,1.51a9.89,9.89,0,0,1-1.45.14v-.12a14.26,14.26,0,0,0,1.46-.9,23,23,0,0,0,2.63-2.41l-.76.48-.08-.11,2.63-2.19-.7.1,0-.09a2,2,0,0,1,.59-.35,2.92,2.92,0,0,0,1.57-1c1.11-1.12,2.23-2.23,3.38-3.32a11.29,11.29,0,0,1,1.14-.76c.47-.33.93-.68,1.39-1s.65-.58,1-.82c1.82-1.2,3.66-2.38,5.48-3.56.14-.09.27-.2.48-.36-1.05-.6-2.17-.39-3.34-.56l.4.6-.07.06a1.18,1.18,0,0,1-.22-.17,3.86,3.86,0,0,0-2.6-1,14.49,14.49,0,0,0-3.78-.05,3.81,3.81,0,0,1-3.68-1.78,10.83,10.83,0,0,1-2-5c-.07-.56-.14-1-.8-1.26s-.61-.83-.59-1.39c-1.12.18-1.58-1.42-1.13-4a1.35,1.35,0,0,1-.55-1.8c.49-1.36-.05-2.74-.2-4.1,0-.16-.31-.29-.57-.51l.82-.18-.32-.31,1-.87c-.67-.79.46-1.17.95-1.83a.84.84,0,0,1,.11-1.27l-.54-.38,1-.29a.94.94,0,0,0,.66-1,3.7,3.7,0,0,1,.75-2,2,2,0,0,0-.17-2.27c-.15-.27-.37-.5-.52-.77a3,3,0,0,1-.17-.6l.24-.11,1.12,2c.34-1.86,1.15-2.92,2.46-3.15,1-.18,2.29.31,2.52,1.07a4.66,4.66,0,0,1,.3,2.22c-.14.65-.78,1.19-1.2,1.78l.74.89,0,.12-1.08-.36c0,.1,0,.24-.07.38a1.75,1.75,0,0,0-.4,0c-.37.15-.73.33-1.11.47s-.69.2-.62.7c0,.1-.07.23-.11.34-.1.31-.21.62-.33,1l-.26-.07c0,.28-.11.57-.14.86a1.42,1.42,0,0,1-.92,1.29c-.13.06-.34.25-.32.31.27.7-.25,1.06-.65,1.5l.81.46,0,.1-.78-.13a4.4,4.4,0,0,1-1.2,3.51c.19.91,1,2-.24,3,.47.91,1.77,1.28,1.73,2.58a6.94,6.94,0,0,0,.73-4.36,10.71,10.71,0,0,1,1.16-7.43,14.18,14.18,0,0,1,1.6-1.89c.25-.29.48-.6.75-.88a1.61,1.61,0,0,1,.51-.39c.38-.19.82-.28,1.17-.5,2.58-1.68,5.09-3.46,7.73-5.05a33.35,33.35,0,0,1,4.33-1.85l.68-.26-3-1.8.08-.19a3.86,3.86,0,0,1,.6.21c.67.42,1.32.87,2,1.27a1.81,1.81,0,0,0,2.18,0c-1-.85-2.12-1.7-3.16-2.57s-2-1.76-3.11-2.7h.62a10.74,10.74,0,0,0-3-3.2c-1.19-.87-2.42-1.68-3.6-2.61.21.11.44.19.64.32,1.72,1.12,3.43,2.26,5.16,3.38a5.13,5.13,0,0,0,1.42.59l-4-4,.13-.14c.42.34.87.65,1.27,1a5.37,5.37,0,0,0,2.61,1.37,5.06,5.06,0,0,1,2.25,1.16c4.15,3.51,8.63,6.58,13,9.78a1.41,1.41,0,0,0,.36.24c1.29.34,2,1.4,2.9,2.27a4.11,4.11,0,0,1,.66,1.06l-1.26-1.27-.2.15,1.3,3.26c.2-.33.43-.54.42-.72,0-.69-.15-1.37-.24-2.05a4.53,4.53,0,0,1-.12-1.12l1.65,2.6.56-.72c.52,4.66,2.08,9,2,13.83l1.77-.86,2.2,5.74a33.61,33.61,0,0,1-.28-8.9,12.51,12.51,0,0,0,0-2.37.87.87,0,0,1,.1-.58c.49-.63,1-1.24,1.59-1.9a5.31,5.31,0,0,1,.24.5c.18.61.41,1.09,1.21,1,.47-.05.52.4.55.75.1,1,.18,1.91.28,2.86,0,.2.08.4.11.57.85,0,1.66-1,2.53.14l-.48-4.55,2.87.5-.4-.71a2.79,2.79,0,0,1,.89-.05,5.4,5.4,0,0,1,3.32,2.36c.81,1.23,1.63,2.46,2.51,3.65a2.33,2.33,0,0,0,1,.58c1,.41,2,.79,3,1.19,0,0,0,.07,0,.15h-2.39l2,1.47-.71.44.85.9a2.1,2.1,0,0,1-1.75,0c-1.37-.68-2.73-1.39-4-2.2-1-.64-1.92-1.45-2.87-2.19l-.42-.3c0,.92-.05,1.78,0,2.64a1.77,1.77,0,0,0,1,1.42c.91.57,1.67,1.37,2.6,1.9,1.35.78,2.78,1.4,4.18,2.08a.83.83,0,0,1,.35.31c-2.35.55-4.72.26-7.16.18l.47,4.84a49.18,49.18,0,0,1,9.08-.1l-.25.38,1.5.21-.1.39,1.92-.49.05.14-1.23.49,0,.22,8.92-.73v-.22c-1.59.37-2.51-.51-3.28-1.69a15.64,15.64,0,0,1-2-5.41,27.62,27.62,0,0,1-.49-6.68l.3.65.79-3.41h.19v3.87H601a25.31,25.31,0,0,1,1.2-7.81l.21,2.45,5.43-8.32.16.07-.23.94.3-.11a19.65,19.65,0,0,1-3.07,6.41l.2.11,2.93-3.59.14.09-1.53,2.88c2.52-.39,5-.87,7.37.12a10.82,10.82,0,0,1,5.78,4.57,9.21,9.21,0,0,0-.7-4.19,3.67,3.67,0,0,1-.17-1.56l.37.52a10,10,0,0,1-.07-2.48c.14-.59-.11-.94-.36-1.5a8.93,8.93,0,0,1,2.13.17,6.4,6.4,0,0,0,4-.29,10,10,0,0,1,1.74-.48c1.32-.15,2.22-1.08,3.29-1.69.1,0,.1-.27.18-.51,2.71-.86,5.39-2.21,8.41-2.51l0-.2-1.23-.81c.8-.14,1.41-.3,2-.36,1.76-.19,3.52-.33,5.27-.52.54-.06,1.15,0,1.5-.59l.77.2.08-.79c.28.2.51.48.8.54s.56-.09.85-.16l0-.17-1.28-.74c3.21-1.36,6.42-1,9.53-.18a13.16,13.16,0,0,1,7.09,4.69l-2-1.25-.14.19c.49.52,1,1,1.47,1.54a11.39,11.39,0,0,1,2.74,3.67c.29.71.37,1.31-.34,1.82a.47.47,0,0,0-.15.41,4.44,4.44,0,0,1,0,3.05c0,.21-.1.43-.16.73.63-.23,1.33-.19,1.31-1.08h3.45c-.25-.6.19-.75.56-.87a6.45,6.45,0,0,1,6,.72l.4.3c.47-.33.47-.33.14-1.36l1,.55,0-.52a14.48,14.48,0,0,1,2.47,2.69,12.5,12.5,0,0,1,.77,3.26l3.61-3-.19,1c.09,0,.15.05.2,0l2.58-.71-.2,1.08,2.52-.49c0,.14.08.28,0,.37-.22.5.13.7.36,1.07.92,1.52,2.62,2,3.83,3.11a5.14,5.14,0,0,1,.58.77l-.5.25c-.52-1.19-1.63-1.54-2.61-2a4.35,4.35,0,0,0-5.37,1.14c-1.18,1.46-1,4.57-.36,5.65l1.32-.12c-.31.84-.65,1-1.29.64a9.5,9.5,0,0,1-1.14-.77c-.34-.26-.65-.57-1-.89,0,.1,0,.2,0,.27.33.87.64,1.76,1,2.61.53,1.16,1.37,1.36,2.57.87a20.83,20.83,0,0,0,6.32-4.24,5.38,5.38,0,0,1,1-.68c.55-.3.38-.78.34-1.21-.1-.93-.28-1.85-.33-2.78-.08-1.27,0-2.54-.12-3.81a13.43,13.43,0,0,0-.33-1.84c.58.19.68.94,1.08,1.4l.17-.05c-.34-2.46-.7-4.92-1-7.39-.26-2.17-.45-4.34-.65-6.52,0-.15.07-.44.15-.46a1.19,1.19,0,0,1,.7.07c.21.1.34.34.56.57v-1l.12,0,.44.83v-5.67l.15,0,.23.68a8.13,8.13,0,0,1,1.16-1.48,2.46,2.46,0,0,1,2.08-.32c-.2.18-.32.37-.43.36-.77,0-1.07.63-1.55,1s-.37.82-.09,1.39c.48-.57,1-.66,1.5,0v-.94c1,2,.93,4.25,1.21,6.45.2-1,.43-2,.6-3a4.6,4.6,0,0,1,1.41-2.82,6.64,6.64,0,0,1,.91,3.87c-.1,1.56-.28,3.11-.41,4.66a11.78,11.78,0,0,0,0,1.2c1.34-.12,1.91.85,2.52,1.88,1.17-.75,2.28-1.54,3.46-2.22,1.74-1,3.53-1.93,5.29-2.91.3-.17.55-.41.84-.6.08-.06.21,0,.31-.07.4-.13.93-.16,1.16-.43a3.62,3.62,0,0,1,3.65-1.11l-1.75,1.61c1.51-.84,2.52-2.37,4.36-3l-3,3.26.1.11,2.85-1.81,0-.09-.74.24a1.32,1.32,0,0,1,1.15-1.2,10.54,10.54,0,0,1,1.23-.21c.2,0,.56,0,.59.13a.8.8,0,0,1-.09.68,24.7,24.7,0,0,1-1.85,1.84c-1.28,1.13-2.59,2.21-3.89,3.31l.15.2,6.34-2.87.08.13-1.6,1.43,0,.06,2.41-1,.08.16a.89.89,0,0,1-.16.22,52.92,52.92,0,0,1-6.15,3.8c-2.53,1.23-5,2.68-7.44,4-.58.32-1.17.63-1.76.93a1.08,1.08,0,0,0-.68,1.13,37.19,37.19,0,0,0,.92,7c.29,1.38.3,2.83.69,4.17.65,2.25,1.49,4.45,2.26,6.66.23.66.53,1.3.78,2a.78.78,0,0,0,.88.6c.62,0,1.25,0,1.87,0l0,.26-2.15.41c1.48,4,3.78,7.72,4.71,12l-.6-.86-.84-2-.24.12ZM686.4-125.26c-.11-.13-.21-.35-.35-.37a2.59,2.59,0,0,0-.92,0c-.15,0-.27.18-.41.28a2.46,2.46,0,0,0,.46.08c.41,0,.82,0,1.23,0L683.58-124c.45,1.29.89,2.71,1.46,4.08a1.53,1.53,0,0,0,1.52,1c.73-.06,1.05-.63,1.22-1.26a4.24,4.24,0,0,0,.16-1.23C687.89-122.87,687-124,686.4-125.26Zm21-5.38a1.12,1.12,0,0,1,.19.29c.44,1.33.87,2.68,1.32,4,.08.22.3.53.48.55,1,.1,2,.14,3.16.2-1.06-2.39-2.07-4.64-3.07-6.89l-.16.07c.57,1.88,1.13,3.75,1.7,5.62l-.19.09c-1.14-2.17-2.33-4.3-3.39-6.5-.52-1.1-.74-2.33-1.22-3.45-.66-1.55-1.43-3-2.14-4.57a9.52,9.52,0,0,1-.34-1.07h-.21a2.94,2.94,0,0,0,0,.72c.36,1.43.75,2.85,1.13,4.27.7,2.58,1.42,5.16,2.09,7.76.21.79.3,1.62.44,2.44l-.19,0a4.83,4.83,0,0,1-.18-.62,16.9,16.9,0,0,0-1.69-5.31,27.18,27.18,0,0,1-2.23-5.93c-.19-.75-.46-1.47-.69-2.21l-.21,0c-.22.35-.62.69-.64,1.05-.15,2.67-.24,5.35-.31,8,0,.75.07,1.49.12,2.24H701l-.18-.69-.15,0,.28,4.07,7.83.57c-.09-.34-.15-.58-.22-.82-.39-1.32-.79-2.65-1.18-4ZM553.91-151.9c-1.74.32-3.82.68-5.9,1.08a6.9,6.9,0,0,0-4.16,2.55,9.52,9.52,0,0,0-2.2,3.71,8.85,8.85,0,0,0,.85,6,16,16,0,0,0,5,5.52,4.11,4.11,0,0,0,3.31,1c2-.35,4-.78,6-1.23a2.67,2.67,0,0,0,2.23-1.49c0-.09.2-.13.31-.18,1.26-.62,1.67-1.83,2.16-3a.79.79,0,0,0,0-.31c0-.49.06-1,.07-1.47a21.72,21.72,0,0,0,0-2.42,18.48,18.48,0,0,0-.41-2.32,20.28,20.28,0,0,0-2.49-6.61,1.22,1.22,0,0,0-.74-.57C556.73-151.75,555.51-151.8,553.91-151.9Zm80.64,2.42c.21,1,.41,1.92.61,2.89a.92.92,0,0,1,0,.37,8.72,8.72,0,0,1-1.24,3.75c-.69,1-1.45,2-2.22,2.94a1.17,1.17,0,0,0-.19,1.2c.49,1.57,1,3.13,1.41,4.71.57,2.06,1.09,4.14,1.64,6.2.12.44.26.8.88.73q3.41-.34,6.83-.6c.46,0,.63-.2.65-.63a29.78,29.78,0,0,0,.18-3c-.08-2.46-.3-4.9-.38-7.35-.05-1.52.08-3,.08-4.55q0-5,0-10c0-.74-.09-1.49-.15-2.29-.32.05-.61.07-.89.12l-6.56,1.17c-1.47.27-3,.42-4.41.82-2.29.65-4.54,1.48-6.8,2.23l-1.17.36a9.9,9.9,0,0,1,1.35.87,1.86,1.86,0,0,1,.6,1c.17,2.07.26,4.15.41,6.23.09,1.23.24,2.46.36,3.69l.18,0c.16-.3.5-.66.43-.89-.27-.81.2-1.08.79-1.36a.93.93,0,0,0,.37-.41c.47-1,1-2,1.37-3.11.49-1.34.88-2.71,1.34-4.14l.36.55.55-1.25.7.59c.46-.55.16-1-.23-1.44,1.15,0,1.86.8,2.74,1.25Zm-17.63,10.73a5.82,5.82,0,0,0-.67-3.8c-1-1.82-2-2.27-4-1.86a13.67,13.67,0,0,0-5.85,3,3,3,0,0,0-1.22,3q.09.62.24,1.23a8.61,8.61,0,0,0,3.26,4.59.64.64,0,0,0,1-.12,18.37,18.37,0,0,0,1.41-2.42,19.9,19.9,0,0,0,.72-2.66,3.43,3.43,0,0,1,.08,3.39c-.23.53-.55,1-.77,1.56a2,2,0,0,0,0,.7c.2,0,.43,0,.57-.05a11.24,11.24,0,0,0,2-1.4c1.69-1.7,2.48-3.67,1.43-6-.17-.37-.29-.76-.49-1.29A6.19,6.19,0,0,1,616.92-138.75ZM668.65-142a2.93,2.93,0,0,1-1.37,2.3,1.82,1.82,0,0,0-.83,1.06,18.47,18.47,0,0,0,0,3.79,6.85,6.85,0,0,0,2.11,4.14,2.29,2.29,0,0,0,3.54-.72h-2.64c.44-.29.94-.35,1.33-.6q2.1-1.32,4.13-2.77a3.77,3.77,0,0,0,.74-1l-.78-.23a15.88,15.88,0,0,0,1-1.32,1.21,1.21,0,0,0,.18-.85,18.22,18.22,0,0,0-2.64-5.47,1.29,1.29,0,0,0-1.44-.52c-.61.17-1.32.26-1.55,1-.56-.38-2.21.58-2.63,1.55ZM567.18-131.88a55.11,55.11,0,0,1-10.89,11.25l13.76-3Zm83.22-8.53a10.83,10.83,0,0,0,5.14-6.77,2.61,2.61,0,0,0-.36-2.37,4.52,4.52,0,0,1-.36-.65l.14-.09.83.89c.09-2.5-1.62-5-3.69-5.44C652-150,650.49-145.32,650.4-140.41Zm7.41,14.94c.55,2.13,1,4.16,1.62,6.16.26.85,1.23.89,1.79.18.07-.08.14-.14.21-.21a3.27,3.27,0,0,0,2,.51c-.16-.52-1-.71-.52-1.25.27-.3.82-.34,1.29-.51a4.1,4.1,0,0,1-.34-.42,1,1,0,0,1-.24-.41,1.32,1.32,0,0,1,1.27-1.51,1.6,1.6,0,0,1,.62,0,2.27,2.27,0,0,0,2.15-.48c.64-.41,1.3-.78,2-1.17l-.07-.12-2,.9c-.28-1.41,1.1-1,1.6-1.69Zm2.55-13.92a1.88,1.88,0,0,0-.24,0c-1.53.85-3.06,1.68-4.57,2.56a.77.77,0,0,0-.24.67c.63,2.76,1.3,5.5,2,8.24,0,.16.25.41.37.4,1.33,0,2.66-.13,3.87-.2-.61-1.24-1.27-2.39-1.74-3.62a9.25,9.25,0,0,1-.48-4.08l.43.78a2.65,2.65,0,0,0,0-.79C659.66-136.79,659-138.21,660.36-139.39Zm-12.66,12h5.37c-1.35-2.29-1.72-4.84-2.43-7.3-.78.21-1.49.37-2.17.62a.8.8,0,0,0-.41.59C647.92-131.5,647.82-129.48,647.7-127.42Zm47.93.58c0-1.83,0-3.56,0-5.28,0-.13-.22-.4-.28-.39a4.81,4.81,0,0,0-1.8.55A16.54,16.54,0,0,0,692-130.1a8.37,8.37,0,0,1-1.68,1.53,11.36,11.36,0,0,1-2.08.81l-1.16.45,0,.17ZM556-124.48c-3.54,1-5.7,3.82-8.26,6.17,2.24-.57,4.46-1.18,6.66-1.86a7.07,7.07,0,0,0,1.44-.85l-.07-.13-.83.42,0-.08,2-1.88ZM677-127.57h3.59l0-.17-.85-.17c.15-.41.61-.57.86-.21.7,1,1.64.75,2.59.73-.06-.19-.19-.42-.15-.47.45-.43.1-.78-.11-1.1a6.14,6.14,0,0,0-1-1.17,3,3,0,0,1-1-1.64,3.64,3.64,0,0,0-.31-.77C679.42-130.87,678.22-129.22,677-127.57Zm-59-1.36h4.29c-.48-2.57-.94-5.11-1.41-7.65C619.94-134,620-131.17,618-128.93Zm-37.58,1.53,1-.14c-.24-.57-.45-1-.63-1.52a2.5,2.5,0,0,1-.13-.54,7.21,7.21,0,0,0-.24-1.87,17.81,17.81,0,0,1-1.15-6.77,10.82,10.82,0,0,0-.88-4.14c-.17.31-.36.49-.37.68a12.66,12.66,0,0,0,.07,1.74c.15,1.21.43,2.42.51,3.63C578.84-133.28,579.82-130.4,580.44-127.4Zm-32.06,5.85a2.39,2.39,0,0,0-.63.09c-.65.3-1.29.64-1.93.95a51.71,51.71,0,0,0-6.46,4.09c-.28.19-.55.4-.82.59a25.62,25.62,0,0,0,3.74-.64,3,3,0,0,0,1.18-.66C545.1-118.56,546.7-120,548.38-121.55Zm23.92-2.36,4-.67a24.54,24.54,0,0,1-5.43-6Zm92.59-27.93.19,0a2.69,2.69,0,0,0-.18-1,9.88,9.88,0,0,0-1.34-1.86c-.79-.81-1.71-1.51-2.54-2.29a13.9,13.9,0,0,0-4.8-2.93,7.65,7.65,0,0,0-5.22-.14c.3.08.48.13.66.16a25.63,25.63,0,0,1,10.49,4.36,6.26,6.26,0,0,1,2.49,3.19C664.71-152.18,664.81-152,664.89-151.84Zm-38.83,17-.22,0,.23,6h3.24Zm24.82-20.56c-1.32.95-2.71,10.31-2.1,14.3C649.94-145.81,649.9-150.59,650.88-155.38Zm-93,31.48a5.41,5.41,0,0,0,.65-.51q2.93-3,5.82-6.08a2.34,2.34,0,0,0,.3-.47c.45-.79.89-1.59,1.33-2.38l.21-.38C563.27-130.56,560.18-127.57,557.88-123.9Zm71-4.29a11.13,11.13,0,0,1-1.07.87,6.9,6.9,0,0,1-1.07.49c-.78.35-.85.49-.58,1.38l4.89-.78A3.15,3.15,0,0,0,628.88-128.19Zm63.73-6.18-5.91,3.53.08.17a7.63,7.63,0,0,0,4.37-1.71c-.21.91-.9,1.11-1.5,1.42l-1.83.93a4.69,4.69,0,0,0,3.08-1.25A6.37,6.37,0,0,0,692.61-134.37Zm3,1.38c-.1-1-.2-2.16-.32-3.45a27.27,27.27,0,0,0-2.24,1.72c-.18.15-.12.63-.07.95a7.31,7.31,0,0,0,.36,1.06l.19-.23,0,.47Zm-160-15.3.3.24a5.92,5.92,0,0,0,.92-1.17,4.9,4.9,0,0,1,2-2.06,15.12,15.12,0,0,0,1.65-1.46c.16-.14.37-.41.51-.38.67.15,1.05-.3,1.48-.62l2.87-2.2a.35.35,0,0,0-.33,0,27.89,27.89,0,0,0-7.38,4.82A17.46,17.46,0,0,0,535.55-148.29Zm76.11,27.08,0-.2a7.91,7.91,0,0,0-1.55.17,1.08,1.08,0,0,0-.63.72c0,.24.24.59.48.78a1.19,1.19,0,0,0,.81.2,11,11,0,0,0,2.06-.38,4.65,4.65,0,0,0,1.06-.68l-.1-.18L611.3-121v-.11ZM608.89-129v-.14l-4.07-1.42c-.46.82-.3,1.21.68,1.74l.34-.52.09.05-.18.93,1.22.09-.45-.51c.48,0,.87,0,1.27,0A10.83,10.83,0,0,0,608.89-129Zm68-16.44c-.9-1.43-2.33-2.32-3.25-2a1.22,1.22,0,0,0-.23.15l.47.12C673.52-146.15,674.82-145.51,676.91-145.43ZM657-152.15l.58,4c.18-.6.37-1.15.52-1.7s.48-1.14.3-1.46-.93-.56-1.42-.82Zm39.39,17.69c-.05.1-.09.14-.08.17.13,2.38.27,4.77.43,7.15,0,.15.28.28.43.42l.17-.14C697-129.37,696.68-131.89,696.36-134.46ZM544.09-132l-1.52-1.76-.2.28-.89-1.55-.21.11a4.38,4.38,0,0,0,1.28,2.47A3.51,3.51,0,0,0,544.09-132Zm9.36-27.13v-.12c-.19-.07-.41-.23-.55-.18-1.59.55-3.17,1.14-4.75,1.72l.08.22Zm-18.29,11.08a9,9,0,0,0-2,5.39Zm167.09-1.67c1.44-.86,1.5-1.75.24-2.58ZM552.68-124.27v-.2c-.32,0-.7-.12-.93,0-.76.49-1.47,1.06-2.21,1.6A6.11,6.11,0,0,0,552.68-124.27Zm.46-7.69,0,.18c1.36.07,2.7.09,3.7-1.14Zm16.08-12.22-.15,0c-.16.85-.33,1.7-.46,2.56a.92.92,0,0,0,.61,1Zm34.63,14.31-1.5-2.84a11.9,11.9,0,0,0,.32,2.32C602.81-129.86,603.19-129.62,603.85-129.87ZM646-134.28l-.21-.12a1.71,1.71,0,0,0-.25.6c0,1.91,0,3.82,0,5.63ZM562.83-143c.42-1.56-.14-3.84-1.11-4.58l.6,2.42.16-.09c.06.09.16.17.17.27C562.71-144.34,562.76-143.74,562.83-143Zm59.94,18.27-.13-.63-3.88,1.44,0,.12ZM661-153.87l.12-.14a4,4,0,0,0-2.91-2.18ZM580.67-126c.24,1,.41,1,1.71.61C582.1-126.15,581.63-126.33,580.67-126Zm-44.87-2.75a2.57,2.57,0,0,0-1-2l-.52.84Zm95.27-9.43-.24.06,1.62,5.75.19-.06Zm-28.23,4.81-.15.08,1.49,2.84.29-.07c0-.22,0-.49-.05-.64C603.92-131.9,603.37-132.62,602.84-133.35Zm59.24-8.18a2.93,2.93,0,0,0-1.13,3.24Zm19.2,15.59-3.46.19A4.66,4.66,0,0,0,681.28-125.94Zm-70.22-18.78v-.17c-.8-.06-1.46-.74-2.36-.36a1.3,1.3,0,0,1,1.29,1ZM548.42-129.2l.06-.33-3.1-.47,0,.28ZM577-146.6l-.26-.1c-.14.2-.42.41-.41.6a14.42,14.42,0,0,0,.3,1.7l.15,0Zm84.35-7.49-.13.09,1.5,2.15.17-.12A4.09,4.09,0,0,0,661.37-154.09Zm-18,3h.09v-3.85h-.09Zm-62.79,24.86,1.44-.29v-.13l-1.53-.61Zm-30.35-25.69-.06-.18-3.11,1,.07.23Zm3.17,20.42h-2.85A4.29,4.29,0,0,0,553.38-131.51Zm124.35-15.75-.14.13,1.22,1.6C678.68-146.26,678.49-147,677.73-147.26Zm-49.91,24.33-.06-.14-3,.79.06.22Zm36.59-24.32c.66-.7.68-1,.17-1.78ZM623-121.64l-.05-.21-2.4.6,0,.16Zm25.26-12.83,1-.22c.29-.07.58-.16.86-.24C648.25-134.85,648.25-134.85,648.22-134.47Zm-93.3,9.73.13.18,1.43-1.08-.14-.18Zm130.9-5.42c.61.65.81.66,1.2.14Z" transform="translate(-526.42 172.26)"/><path d="M567.51-165.21l-.37.07a.91.91,0,0,1-1.22-.64c-.12-.45.17-.81.79-1l.24,0c1.09-.33,1.11-.32,1.48.5l1.86.39.06,0c1.11-.5.92.15.79.84a2.21,2.21,0,0,0,.19.83c1.43-.72,2.06.45,2.78,1l.95-.12a1.7,1.7,0,0,1,.05.7c-.05.1-.4.07-.63.11.23.62-1,1.2-.13,1.93l-1.46.4-.07-.37a9.8,9.8,0,0,1-2.21.08,1.48,1.48,0,0,1-1.06-1.81l-1-.28c0,.26.07.46.08.66s0,.54-.06.59c-.95.48-.58,1.65-1.2,2.2l-1.56.5.18-.51c-1.07-.78-1.09-1.5-.07-2.48a.54.54,0,0,0,.18-.37c-.14-.76.4-1.08.92-1.3a.75.75,0,0,0,.51-.9C567.49-164.55,567.51-164.86,567.51-165.21Z" transform="translate(-526.42 172.26)"/><path d="M565.66-163.14a12.74,12.74,0,0,1-.89,1.33,3.49,3.49,0,0,1-.84.63,3,3,0,0,1-.32-.34l-.87.41a2.86,2.86,0,0,1-1.66-3.49,2.36,2.36,0,0,1,2.44-1.37,1.7,1.7,0,0,1,1.67,1.55A9.38,9.38,0,0,0,565.66-163.14Z" transform="translate(-526.42 172.26)"/><path d="M542.75-160.27l.17,1s-.2.09-.24.18c-.82,2-2.67,2.1-3.75.75a2.79,2.79,0,0,1-.33-.72c-.08-.18-.14-.38-.23-.62l1-1.45a1.47,1.47,0,0,1,1-.48C541.64-161.92,542.24-161.15,542.75-160.27Z" transform="translate(-526.42 172.26)"/><path d="M574.84-170.11s-.07.15,0,.19c.6.54.08,1.13.08,1.69a4.48,4.48,0,0,1,0,.57,2.42,2.42,0,0,0-.71.08,1.54,1.54,0,0,1-1.8-.15,1.78,1.78,0,0,1-.46-2.22,1.68,1.68,0,0,1,1.82-.9,1.26,1.26,0,0,1,.46.26C574.36-170.46,574.56-170.31,574.84-170.11Z" transform="translate(-526.42 172.26)"/><path d="M563.88-170.41a.94.94,0,0,1-.94-.88,1.08,1.08,0,0,1,1-1,1,1,0,0,1,.89,1A.91.91,0,0,1,563.88-170.41Z" transform="translate(-526.42 172.26)"/><path d="M602-128.78l-2.9.46,0-.18L602-129Z" transform="translate(-526.42 172.26)"/><path d="M562.08-169.23c-.18-.28-.35-.44-.37-.62s.28-.29.42-.27a.5.5,0,0,1,.36.36C562.49-169.62,562.28-169.48,562.08-169.23Z" transform="translate(-526.42 172.26)"/><path d="M568.68-159.4l.57-.3.39.94-.08.08Z" transform="translate(-526.42 172.26)"/><path d="M528-141.38l-.42-.59a1.64,1.64,0,0,1,.26-.16,6,6,0,0,1,.41.58Z" transform="translate(-526.42 172.26)"/><path d="M666.23-119.43c.82.21,1.21.65.95,1Z" transform="translate(-526.42 172.26)"/><path d="M707.42-130.65c-.37-1-.76-2-1.1-3-.53-1.52-1-3.05-1.53-4.58l.15-.06c.24.57.52,1.13.71,1.72.61,1.87,1.18,3.75,1.75,5.63a1.08,1.08,0,0,1,0,.31Z" transform="translate(-526.42 172.26)"/><path d="M551.9-120.35l1.94-.59.06.2-1.95.56Z" transform="translate(-526.42 172.26)"/></g></svg>