<svg id="レイヤー_1" data-name="レイヤー 1" xmlns="http://www.w3.org/2000/svg" viewBox="0 0 1680.3 562.44"><defs><style>.cls-1{fill:#fff;}</style></defs><title>logo</title><path class="cls-1" d="M195,1941.5c3.06-1.65,6.27-3.08,9.17-5,8.33-5.47,15.53-12.28,23.39-20.09l-3.75.7-.42-.55L244,1899.32l-4-.38-.36-.78a39.55,39.55,0,0,1,5.36-2.7,30.53,30.53,0,0,0,12.35-8.15c9-9.14,18.19-18.11,27.43-27,2.14-2.06,4.81-3.56,7.22-5.33q10.47-7.68,20.92-15.37c1.88-1.38,3.75-2.78,5.7-4q20.31-13.23,40.64-26.42c1.92-1.24,3.74-2.63,5.73-4.05-5.53-3.58-16.37-5.27-26.73-4.27l1.6,3.49c-.39.11-.79.33-.9.24-6.68-5.8-14.5-8.34-23.28-9a181.14,181.14,0,0,0-31.42-.17c-12.85,1.19-22.91-4-30.37-14.59-9.19-13.06-15.17-27.3-17-43.22-.46-3.92-1.61-7.64-5.74-9.26-4.34-1.7-6.05-4.92-6-9.35,0-.66-.11-1.31-.19-2.27-7.15-.94-9.57-6.09-9.95-12.29a144.69,144.69,0,0,1,.23-17.91c.15-2.49.05-4.23-2-6.09a10,10,0,0,1-2.62-11.47c2.8-7.46,2.76-15,1.11-22.62-.63-2.93-1.1-5.89-1.56-8.86-.8-5.09-.78-5.09-4.47-8.36.24-.21.45-.52.73-.62,1.26-.41,2.54-.77,4.15-1.25l-1-3.09,7.54-6.85c-2.92-4.29-.7-7.22,2.46-9.94,1.88-1.61,3.65-3.34,5.62-5.17-2.45-3.8-2.7-7.37.66-10.82-1.14-1.08-2.15-2-3.55-3.36,2.62-.84,4.75-1.62,6.93-2.21,4.06-1.09,6.35-3.76,6.45-7.86.15-6.25,2.38-11.66,5.71-16.79,4.06-6.26,3.79-12.56-.16-18.77-1.34-2.11-2.82-4.13-4.15-6.25-1.22-1.94-2.42-3.94-1.69-6.79,3.68,1.24,4,4.81,5.61,7.22s3,5.13,4.87,8.49c.94-3,1.57-5.21,2.3-7.37,1.9-5.6,4.52-10.74,9.37-14.44,7.54-5.74,19.12-5.78,26.6,0a13.37,13.37,0,0,1,2.81,2.81c5.62,8.19,4.93,21.75-1.4,29.44-1.59,1.92-3.14,3.87-5,6.1l5.59,7.48-.42.74-6.37-1.86c-2.06,1-3.64,1.88-5.31,2.57-4.14,1.71-8.39,3.19-12.45,5.09a6.14,6.14,0,0,0-2.51,3.38c-1.05,3-1.74,6-2.6,9.06-.23.8-.34,2-.87,2.28-3.58,1.69-3.12,5.13-3.54,8.06-.67,4.64-2.71,8.2-7,10.23-2.41,1.14-3.26,2.69-3.14,5.49.09,1.94-1.08,4.06-2.06,5.9-.75,1.43-2.08,2.56-3.4,4.1l6.25,4.25H237a19.9,19.9,0,0,0-.37,2.65c-.1,8.95-2.48,17.14-8.42,24-1.69,2-1.69,3.78-.95,5.95s1.32,4.12,2,6.18a13,13,0,0,1-3.18,13.84c-.45.47-.83,1-1.45,1.77,1.79,3.92,5.57,6,8.18,9.17s4.78,6.6,7.15,9.93a57,57,0,0,0,4.73-36.1,87.88,87.88,0,0,1,5-50,62.54,62.54,0,0,1,11.67-19.07c4.24-4.7,8.23-9.65,12.7-14.12,2.16-2.16,5.08-3.61,7.79-5.15,3.6-2,7.52-3.58,11-5.83,14.93-9.74,29.84-19.52,44.58-29.54,15.4-10.47,32.07-18.29,49.55-24.51,2.65-.94,5.24-2,8.6-3.34-4.74-2.84-8.89-5.26-13-7.8s-8.18-4.55-11.58-7.88c2.82-.59,4.9.65,7,2,5.2,3.31,10.37,6.65,15.61,9.91,5.62,3.49,11.28,3.42,17.71-.32-8.92-7.52-17.8-14.41-26.39-21.63s-16.84-14.55-25.74-22.27l4.37-1c-1.13-1.72-2.06-3.21-3.07-4.64a92.74,92.74,0,0,0-22.65-22.37c-7.1-5-14.09-10.08-21.11-15.16a8.37,8.37,0,0,1-2.86-3.21c1.36.83,2.73,1.62,4.06,2.48l38.05,24.91c3.47,2.27,7.11,4.11,11.65,4.29l-31.89-31.94.66-.86a11.31,11.31,0,0,1,2.32,1.12c3.15,2.46,6.31,4.92,9.34,7.53,5.64,4.87,11.91,8.56,19.23,10.17,8.68,1.91,16,6.11,22.76,11.85,28.36,24.07,58.79,45.43,88.85,67.27,4.18,3,8.38,6,12.55,9.08s8.4,6.55,13.68,8.07a11.31,11.31,0,0,1,3.45,2,100.52,100.52,0,0,1,18.64,18.68,4.37,4.37,0,0,1,.95,3.3l-8.63-8.45c-.52.82-1.23,1.48-1.11,1.81,3.29,8.63,6.67,17.23,10.14,26.08,3.09-2.18,4.07-4.65,3.69-7.68-.61-5-1.27-9.9-1.93-14.85a49.63,49.63,0,0,1-.65-7.53c5.4,5.87,8.6,13.23,13.71,19.51l4.43-5c.65,4.26,1.07,7.76,1.72,11.22q4.85,25.77,9.8,51.52a284.07,284.07,0,0,1,5.56,49.59c0,.79.18,1.58.36,3,4.79-2.26,9.24-4.36,14.36-6.76,5.63,14.55,11.16,28.85,16.68,43.16l.85-.2q-.7-6.79-1.42-13.6a278.87,278.87,0,0,1-.09-54.89,140.4,140.4,0,0,0,.24-19.46,12.41,12.41,0,0,1,3.15-9.57c3.54-4,6.87-8.11,10.9-12.91,1,2.26,1.8,3.79,2.36,5.42,1.62,4.72,4.37,7.8,9.86,7.34,3.09-.26,4.09,1.86,4.39,4.34.61,5,1,9.94,1.54,14.91.38,3.81.68,7.64,1.14,11.44a34.05,34.05,0,0,0,1.12,4.35c7-.87,13.5-6.79,20.87.44-1.33-13-2.54-24.8-3.84-37.41l23.59,3.91c-.86-1.93-1.52-3.43-2.39-5.42a14.71,14.71,0,0,1,9.65-.05,45.7,45.7,0,0,1,25.06,18.8c6.13,9.13,12.47,18.11,18.55,27.28a21.88,21.88,0,0,0,11.2,8.67c8.25,3.05,16.36,6.46,24.5,10.19-2.75,1.3-5.65.76-8.46.85-3,.1-6,0-9.67,0,2,3.27,4.92,4.48,7.24,6.34s5.05,3.77,7.91,5.89l-5.32,4c2.09,2.34,4.11,4.63,6.62,7.45-5.2,2-9.92,2.12-14.35,0-15.74-7.65-31.26-15.7-45.07-26.64l-15.77-12.51a30.34,30.34,0,0,0-.61,3.81c0,5.5,0,11,0,16.49s2.52,9.78,7.2,12.91c4.28,2.87,8.26,6.19,12.51,9.11,5.34,3.67,10.61,7.54,16.3,10.6,8.79,4.73,17.92,8.83,26.87,13.25a18,18,0,0,1,4.75,3.38c-19.63,4.81-39.35,2.4-59.45,2,1.34,13.66,2.63,26.84,4,40.42a458.19,458.19,0,0,1,75.35-.76c-.06,1.15-.11,2-.17,3.26l11,1.79c.16,1,.31,1.85.49,2.94l14.7-3.47c-2.57,2.86-6.42,3.12-9.34,5.72,4.19,1,68.68-4,74.56-6.26-1.33,0-2.67-.06-4,0-6,.31-11.28-1.49-15.4-5.8a56.62,56.62,0,0,1-8.08-10.09,132.25,132.25,0,0,1-16.42-44.76,268.82,268.82,0,0,1-4.21-39.7c-.1-4.48,0-9,0-14.17l3,2.13c2.17-9.06,4.28-17.9,6.39-26.73l1.35.15c.55,4.81.17,9.69.24,14.54a102.8,102.8,0,0,0,.77,14.52c.46-6.55.7-13.12,1.44-19.64.79-6.94,2-13.84,3.16-20.73a71,71,0,0,1,5.9-19.43c.51,5.2,1,10.4,1.55,15.86,2.22-.38,2.67-2.37,3.56-3.73Q857.46,1590,877,1560a13.27,13.27,0,0,1,3.78-4.07,20.48,20.48,0,0,1,0,2.6c-.25,1.84-1.63,3.55.34,5.51.58.57-.29,2.78-.71,4.17a162.27,162.27,0,0,1-21.06,44c-.83,1.23-1.6,2.51-2.34,3.8-.11.2.14.6.34,1.32,3.72-2.5,5.72-6.34,8.48-9.45s5.5-6.69,8.25-10a101,101,0,0,1,8.68-9.68c-2.87,8.24-7.7,15.52-11.64,24.11l16.08-2.26c13.81-1.93,27.57-2.54,41.09,1.76,20.62,6.56,37.77,18,50.3,35.93.54.78,1.16,1.51,2.21,2.86a35.74,35.74,0,0,0-.21-15.25,149.13,149.13,0,0,0-4.68-17.32c-1.33-4.16-2.29-8.26-1.83-12.83l2,.49c.27-6.89.63-13.83.75-20.78a18.61,18.61,0,0,0-1.06-5.34c-.44-1.54-1.14-3-1.83-4.77a51.82,51.82,0,0,1,17.75,1.26,57.07,57.07,0,0,0,33.37-2.47,86.28,86.28,0,0,1,14.4-4,41.94,41.94,0,0,0,16-6.61c3-2.07,6.1-4.07,9.18-6,1.68-1.09,3.27-2.05,3.83-4.32.24-1,1.68-2,2.78-2.36,16.51-5.72,33-11.47,49.6-16.89,4.55-1.49,9.44-1.94,14.17-2.88,1.39-.27,2.77-.58,4.15-.87.1-.36.2-.72.29-1.08l-9.5-6.86c5.47-2,10.7-2.62,15.88-3.19,15.89-1.74,31.82-3.18,47.72-4.94a16.46,16.46,0,0,0,7.35-2.52c1.87-1.3,3.37-1.82,5.43-1.12a25.93,25.93,0,0,0,2.63.6c.45-2,.85-3.73,1.4-6.18,4,4,8.18,5.78,13.38,2.53-2.18-3.64-6.9-4.06-10-7.5,2-.78,3.65-1.47,5.33-2a100.93,100.93,0,0,1,42.38-4.82c18.52,1.66,36.53,5.47,53.34,13.83a109.38,109.38,0,0,1,33.43,25.78c.86,1,1.64,2,3.21,3.94-6.33-2.38-10.38-6.8-16.88-8.91a18.91,18.91,0,0,0,1.71,3c4.38,4.57,8.7,9.2,13.23,13.62a96.22,96.22,0,0,1,19.71,26.86,39,39,0,0,1,2.27,6.06c1.07,3.66.4,7.07-2.61,9.53-2.76,2.25-3,4.6-2,7.91a35.85,35.85,0,0,1,0,20.22c-.68,2.52-1.24,5.07-2,8.15,5.77-.91,10.33-2.23,11.32-8.72h27.91c-.75-4.66,2-6.13,5.43-7.31,17.89-6.23,34.72-4.29,50.49,6.3l2.49,1.66a5.71,5.71,0,0,0,.8.24c5.11-2.15,1.81-6.34,1.79-10.25l7,3.3c.51-1,.91-1.87,1.48-3,7.23,6.38,14.3,12.87,19.09,21.09,2.78,4.75,3.81,10.58,5.31,16,1,3.64,1.45,7.43,2.27,11.83l29.51-24.4c-.25,3.08-.43,5.36-.65,8.17l22.49-6c-.24,3-.45,5.46-.72,8.64l20.68-3.73a10.45,10.45,0,0,1,0,2.9c-1,2.47-.12,4.43,1.19,6.54a52.67,52.67,0,0,0,17.28,17q6.57,4.1,12.94,8.5a24.62,24.62,0,0,1,8.36,9.46l-3,1.69c-11.63-13.54-25.82-20.71-43.45-19.9-12.09.56-26.89,10-30.17,25.77a62.68,62.68,0,0,0,.19,28.22,64.74,64.74,0,0,0,2.36,6.51l10.38-.58c-1.39,6.43-4.66,8.21-9.9,5.05-4.68-2.83-9-6.32-13.38-9.57-1.31-1-2.51-2.07-4.66-3.86a40.11,40.11,0,0,0,1.05,4.63c2.28,6.08,4.54,12.17,7,18.18,3.87,9.51,10.29,12.5,20,8.88,5.44-2,10.57-4.87,15.86-7.31,1.47-.68,3-1.23,4.53-1.84l-.07-.09a33.72,33.72,0,0,1-3.67,3c-6.25,3.81-12.57,7.51-18.84,11.3a18.15,18.15,0,0,0-2.36,2c13.55.55,25-4.67,36.43-12.56a12.88,12.88,0,0,1-7.17,8.65c-5.16,2.7-10.38,5.27-15.56,7.94a31.54,31.54,0,0,0-3,2.15c19-1.84,38.78-20.9,37.44-35.53-4.67,2.76-9.21,5.51-13.82,8.14a36.24,36.24,0,0,1-4.45,1.85l.09.1a42,42,0,0,1,3.3-2.82,197.46,197.46,0,0,0,25.74-20.58,29.6,29.6,0,0,1,7.23-5.27c4.33-2.13,5.5-5.32,4.84-9.8-.9-6.09-1.76-12.2-2.27-18.33-.56-6.63-.9-13.29-1-20-.09-10.52-.49-21-2.85-31.28a12.24,12.24,0,0,1,0-2c5.14,2,4.83,8.19,9.45,11a27.86,27.86,0,0,0,0-3.24c-3.06-23.28-6.31-46.54-9.16-69.84-1.7-13.89-2.81-27.85-4.13-41.78-.19-2.09-.91-4.78,1.38-5.9a6.14,6.14,0,0,1,7.31,1.59,9.7,9.7,0,0,1,1.35,2.69l1.45-.89c.14-2,.28-4,.48-6.94,1.56,2.09,2.63,3.54,4.47,6v-45.76l1-.25c.7,1.29,1.41,2.58,2.47,4.54,6.21-9.41,12.72-17.9,25.93-14.57-.68,2.29-2.16,2.93-4,3.27-6.29,1.15-9.53,6.38-13.49,10.52-1.61,1.69-.91,4.53,1.18,8.63,3.8-3,7.77-4.92,12.09,0,.27-2.08.46-3.53.8-6.06,8,16.23,7.18,33.14,9.73,50a20.3,20.3,0,0,0,1.18-2.08,11.65,11.65,0,0,0,.46-1.94c1.34-7,2.65-14.07,4-21.1a37.37,37.37,0,0,1,8.94-18.15,11.66,11.66,0,0,1,1.43-1.38c.23-.19.61-.19,1.28-.38,4.45,7.67,7.37,15.94,7.36,24.89,0,8-.8,16-1.42,23.93s-1.49,15.92-2.12,23.89c-.21,2.61,0,5.25,0,8.17,11.53-.64,16.07,7.54,21.2,15.36a19.25,19.25,0,0,0,3.06-1.42c21.08-14.75,43.87-26.54,66.36-38.87a29.61,29.61,0,0,0,4.34-2.45,36.25,36.25,0,0,1,15.2-7.08c2.08-.46,4-2.21,5.69-3.75a30.81,30.81,0,0,1,22.75-8.55,22.51,22.51,0,0,1,3.47.41,16.12,16.12,0,0,1,2.39.9l-9.46,8.86.6.75c9.76-6.83,17.59-16.55,29.73-20.08l-23.75,26c4.43-1.2,18.4-9.87,22.72-13.85h-3.86c.77-4.39,2.94-7.52,6.81-8.61a77.46,77.46,0,0,1,14.21-2.42c3.81-.31,5.1,2,3.4,5.46a13.91,13.91,0,0,1-3,3.91c-7.51,7.08-15,14.2-22.7,21.08-6.33,5.67-12.94,11-19.41,16.53-1.09.93-2.09,2-3.36,3.18,2.29,1.73,3.83.16,5.27-.48,14.58-6.53,29.12-13.16,43.68-19.75a20.33,20.33,0,0,1,5.28-1.73c-2.94,4.4-7.57,7.19-10.43,11.9l17.75-7.22c-.52,1.6-.59,2.75-1.18,3.43a16.46,16.46,0,0,1-3.17,2.41,443.82,443.82,0,0,1-52.23,31.35c-9.48,4.85-18.87,9.89-28.25,14.95-14.65,7.92-29.19,16-43.91,23.82-4.74,2.51-6.72,6-6.43,11.25a362.77,362.77,0,0,0,7.13,54.94,189.4,189.4,0,0,1,3,19.23c1.41,13.55,5.56,26.38,10,39.1,6,17,12.25,33.81,18.46,50.68,2,5.56,3.37,6.4,9.19,6.43,3.66,0,7.33,0,11,0a5.62,5.62,0,0,1,3,1.13c-5.34,2.91-11.46,2.59-17.38,4.71.62,1.79,1.1,3.51,1.81,5.13q9.93,22.65,19.93,45.26c6.26,14.18,12.17,28.48,15.89,43.58.38,1.52.12,3.19.28,4.78a13.86,13.86,0,0,0,.74,3.75c4.55,11.47,9.43,22.75,16.22,33.15,5.47,8.38,8.71,17.83,12,27.31a220.44,220.44,0,0,1-23.39-30.12c-6.82-10.54-13.18-21.38-20.2-32.83.69,3.64,1.24,6.5,1.79,9.36l-.7.3a8.65,8.65,0,0,1-1.34-2c-1.19-4-2.18-8-3.42-12-1.44-4.58-2.54-9.38-4.72-13.6a744.45,744.45,0,0,1-34-76.13c-.35-.93-.7-1.87-1.1-2.78-1.24-2.9-3.3-4.49-6.59-4.28-7.81.5-15.62.94-23.6,1.42-.44,1.67-.8,3-1.42,5.45-.48-1-.69-1.45-.88-1.89-1.46-3.29-4.19-4.58-7.58-4.81-1.66-.12-3.32-.2-5-.22q-27.75-.3-55.5-.59c-8-.09-8.53.44-8,8.47.69,10.64,1.42,21.28,2.09,31.93.11,1.79,0,3.6,0,5.37-2.61.52-2.54-1.3-2.84-2.68-1.68-7.64-3.33-15.29-5-22.93a1.62,1.62,0,0,0-1.12-1.24c1.79,17.43,3.58,34.87,5.41,52.78-2.74-1-2.76-3.08-3.15-4.7-2.77-11.66-5.57-23.32-8.11-35-2.16-9.92-4-19.91-6-29.87-.47-2.36-1-4.64-4.1-4.82-2.48-.15-3.77.75-4.13,3.24a31.94,31.94,0,0,0-.17,4.49c0,9.45,0,18.91,0,28.91-2.23-1.1-2.37-2.71-2.57-4.28-1.06-8.59-2.18-17.18-3.15-25.79-.61-5.39-1.94-6.9-7.51-7.28s-11-.54-16.48-.8q-19.21-.89-38.44-1.74c-1.59-.07-3.18.14-5.32.25l3.34,6.29c-5-.64-7.09-4.91-11.66-6.34.63,2.28,1.05,4.12,1.66,5.89,2.26,6.62,4.74,13.16,6.84,19.83,3.35,10.6,1.45,20.36-5.19,29.27-2.56,3.43-5.84,4.86-10,4.15-8.14-1.39-13.58-6.17-16.14-13.89q-4.72-14.22-8.77-28.65a22,22,0,0,0-10.13-13.09,10,10,0,0,0-6.59-1.17c-10.93,2.15-21.87,4.36-32.65,7.18-9,2.37-17.46,1.89-25.46-3a24.86,24.86,0,0,0-19.71-3,100.25,100.25,0,0,0-39.23,20.15,11.76,11.76,0,0,0-4.52,7,9.92,9.92,0,0,1-1.7,4.11c-3.42,4.28-4.64,9.12-3.92,15.37l-7.93-4.12-5.68,12.29h12.73c0,.3.06.6.1.91a19.35,19.35,0,0,1-3,1c-8.39,1.31-16.79,2.56-25.19,3.82-6.59,1-12.93-.22-19.2-2.11-2-.6-4-1.15-6.78-1.93,4,17.68,7.76,34.62,9.61,52.79-4.65-3-5.58-7.84-8.89-11l-2.84.84-20.71-42.61-3.15,4.4a25,25,0,0,0-13.3-17.94l6.91.59a27.33,27.33,0,0,0-1.07-3.35c-5.65-11.88-11.41-23.71-17-35.64-1.72-3.69-4.29-5.3-8.27-5-15.42,1.27-30.84,2.52-46.6,3.8-.1,2.11-.23,3.73-.24,5.35,0,10.66.07,21.33,0,32A111.17,111.17,0,0,1,1205,1875c-.2.6-.54,1.17-1.18,2.51l-8.88-11.18c-.51,10.75-.72,20.42-1.5,30s-2.13,19.16-3.74,28.77c-6.81-18.9-10.85-38.33-13.29-58.13s-2.91-39.82-2.65-60.55c-19.48,1.54-38.45,3.25-58.19,5.09l11.9,33c-1.91-.92-2.92-1.1-3.38-1.69-2-2.65-3.64-5.6-5.81-8.09a32.49,32.49,0,0,0-6.94-6.21c-2.39-1.51-2.94-1-5.28,1.69-2.62-3.51-5.26-6.92-7.75-10.44-3-4.31-6.94-5.7-12.15-4.56-17.56,3.84-35.17,7.46-52.76,11.19a53.9,53.9,0,0,0-5.33,1.33c-4.87,1.57-6.33,3.31-5.92,8.42.52,6.47,1.64,12.88,2.36,19.33,1,9.1,2.1,18.2,2.78,27.33.36,4.92-.24,5.58-4,9.38-.71-3.35-1.51-6.26-1.93-9.22a101,101,0,0,0-7.42-25.83c-1.94-4.52-2.75-9.54-4-14.36-.73-2.85-1.3-5.75-2-9-5.59.72-10.67,1.38-15.75,2-15,1.89-30.07,3.81-45.11,5.65-10.12,1.23-20.07,3.11-29.62,6.76a36.33,36.33,0,0,1-18.16,2.26,21.87,21.87,0,0,1-8.25-3.09,7.87,7.87,0,0,1-3.48-9.19,64.82,64.82,0,0,1,5.33-12.76c.77-1.42,3.24-2.18,5.09-2.71,5.43-1.55,11-2.68,16.41-4.29a54.87,54.87,0,0,0,10.17-4.05c14.4-7.67,28.71-15.52,43-23.37,1.42-.78,3.62-1.13,3.27-4a25.66,25.66,0,0,0-3.41,0c-5.28.73-10.54,1.58-15.82,2.28-4,.53-7.86.82-11.85-.47a10.12,10.12,0,0,0-10.68,2.48c-7.26,7.32-16,12.43-24.86,17.48-6.5,3.72-13,7.48-19.51,11.17-1.51.85-3.13,1.51-4.69,2.26l-.78-.88c6.44-9,12.89-17.91,19.82-27.53-2.11-.15-3.35-.3-4.59-.32a562.65,562.65,0,0,0-74.33,3.82c-31.25,3.75-62.45,7.93-93.67,11.91-10.9,1.39-21.81,2.72-32.72,4.09-.8.1-1.6.26-2.94.49a443,443,0,0,1,10.33,76,44.54,44.54,0,0,1-3-3.42,176.92,176.92,0,0,1-27-64.54c-.32-1.58-.73-3.14-1.15-5-5.81.88-11.22,1.66-16.61,2.54-4.64.75-5.2,1.44-5.37,6.12-.2,5.64-1.4,7.17-7.4,8.85l-3.41-11.7L588.24,1835c1,8.81,2,17.44,3.16,26.91-3.69-2.2-3.7-5.48-5-7.94s-2.25-5.18-3.49-8.11l-2.78,1.25c-.61-1.54-1.21-3-1.82-4.56a4.85,4.85,0,0,0-5.51-3.31,41.73,41.73,0,0,0-4.43.73c-45.91,10.5-91.87,20.84-137.73,31.6-26.08,6.12-52,13-78,19.39-7.27,1.79-14.74,2.91-21.41,6.54a77.41,77.41,0,0,0-11,6.77c-15.13,11.91-32,21-48.54,30.66a7.75,7.75,0,0,1-1.83.43c1-3.64,4.07-4.92,6.13-7,2.34-2.36,4.94-4.46,7.43-6.68a48.56,48.56,0,0,0,6.79-7,14.69,14.69,0,0,0-2.83.73c-2.87,1.32-5.7,2.74-8.53,4.16-17.24,8.71-35.75,13.51-54.42,17.84-4.38,1-8.7,2.36-13.12,3.1-5.39.91-10.86,1.36-16.29,2Zm295.84-267.75c1.55-13.46-1-26.51-3.79-39.56a176.4,176.4,0,0,0-19.85-51,10.67,10.67,0,0,0-9.32-5.68c-9.47-.54-18.94-1.24-28.41-1.8a21.56,21.56,0,0,0-4.94.35c-14.09,2.51-28.13,5.25-42.25,7.57-13.7,2.24-25.88,7.44-35.65,17.47a146.73,146.73,0,0,0-10.41,12.12q-19.32,24.76-12.37,55.49c2.68,11.93,8.31,22.39,15.3,32.24,9.34,13.19,21,23.89,34,33.54,9.44,7.06,19.5,9.7,30.94,7.39,16.3-3.3,32.57-6.75,48.9-9.9a24.1,24.1,0,0,0,16.15-10.69,9.89,9.89,0,0,1,3.12-3c10.53-6.09,18.31-18.93,18.61-31.13C490.93,1682.73,490.84,1678.24,490.84,1673.75Zm613.74-77.21c1.73,8.33,3.29,15.65,4.77,23a13.38,13.38,0,0,1,.25,3.94,70.2,70.2,0,0,1-13.09,35.15c-4.9,6.73-10,13.33-15.15,19.88a12.14,12.14,0,0,0-2.32,12c5.52,18.15,10.79,36.38,15.93,54.64,3.34,11.86,6.25,23.83,9.44,35.73,1.59,5.93,3.13,6.95,9.28,6.47,3-.24,6-.64,8.94-.9,15.6-1.35,31.21-2.66,46.81-4,3.74-.33,5-1.53,5.39-5.26a112.61,112.61,0,0,0,1.06-13.94c-.3-15.15-.94-30.3-1.38-45.44-.46-15.82-1-31.63-1.21-47.45-.12-9.33.49-18.66.53-28q.12-32.74,0-65.49c0-8-.54-16-.89-24a36.34,36.34,0,0,0-.66-4.14c-3.11.42-5.91.7-8.67,1.18-20.33,3.56-40.67,7.06-61,10.78-11.28,2.07-22.73,3.75-33.68,7-20.57,6.12-40.83,13.25-61.21,20-.18.06-.24.49-.46,1,2.7,1.81,5.48,3.59,8.17,5.49,4.15,2.94,6.84,6.74,7,12,.07,2.5.37,5,.56,7.48q2.6,34.38,5.21,68.76c.12,1.55.59,3.06,1.07,5.51,2.54-3.28,5.3-5.39,4.36-9-1.29-4.86.92-7.72,4.92-9.62,3.07-1.46,4.8-3.86,6.26-6.79a238.77,238.77,0,0,0,14.19-35.17c2.32-7.45,4.76-14.86,7.26-22.62l3.42,3c1.56-3.34,2.95-6.29,4.43-9.45,1.37,1.06,2.26,1.81,3.21,2.47s1.84,1.15,2.78,1.72c2.28-4.25,2.28-4.25-.87-11.2,8.86-.21,14.33,6.71,21.7,9.74Zm-148.3,89.12c.34-2.69.62-4.1.67-5.52.43-11.05-3.06-20.91-8.83-30.19-6.52-10.49-15.82-14.19-27.75-11.92-21.36,4.06-39.73,14-55.67,28.56a22.61,22.61,0,0,0-7.43,19.42c2.09,21.58,12.08,38.81,29.5,51.71,3.68,2.72,6.44,2.43,8.93-1.25,6-8.82,11.68-17.83,14.3-28.37,1-4.09,2.17-8.15,3.46-13,.85,1.44,1.33,2.09,1.64,2.81a27.62,27.62,0,0,1-.34,23.23c-1.87,4.08-4,8-6,12.06-1.26,2.57-2.18,5.2-.71,8.54,1.75-.33,3.7-.27,5.18-1.06,11.84-6.35,21.67-14.87,27.77-27.11,5.1-10.25,5.47-20.78,1.42-31.46-1.18-3.11-2.49-6.17-3.66-9.29a30.88,30.88,0,0,1-.87-3.87C945.59,1672.9,950.79,1678.62,956.28,1685.66Zm444,62.11-.27-1.09c3.12-1.42,6.46-2.48,9.3-4.32,11-7.16,22-14.51,32.82-21.91a19.06,19.06,0,0,0,7.36-9.37l-5.7-2.2c2.65-3.62,5-6.84,7.35-10a10.76,10.76,0,0,0,1.62-10,154,154,0,0,0-21.77-44.16c-2.27-3.25-5.53-5-9.45-4.5-6.16.77-12.34,1.82-15.63,8-9.7,0-16.1,5-21.94,13.19l6.93-2c-.93,8.35-4.65,14.36-11.15,18.56a15.67,15.67,0,0,0-7.71,14.2c.06,7.5-.29,15,.12,22.48a56.52,56.52,0,0,0,16.88,37.9,19.31,19.31,0,0,0,11.91,5.71c7.78.9,15.56-3.49,18.23-10.48Zm272.53-83c-3.63,3.8-6.71,6.39-6.9,10.77-1.11,26.62-3.39,53.2-2,79.88.08,1.55,0,3.1,0,4.66l-.78.07-2.18-4.71-.82.32c.79,11,1.57,22.07,2.37,33.33l65.77,4.74c-2.63-9.23-5-17.6-7.4-26a7.07,7.07,0,0,1,2.09,3.48c2,6,4.08,12,6,18,1.26,4,3.64,6,8,6.14,6.15.15,12.3.7,18.45,1,1.24.07,2.49-.12,4.33-.21-7.78-17.51-15.34-34.51-22.92-51.5-.74-1.67-1.62-3.27-2.45-4.89,0-.09-.31-.11-.47-.11a4.12,4.12,0,0,0-.74.19c.45,1.7.87,3.43,1.39,5.14,3.87,12.91,7.78,25.81,11.63,38.72a14,14,0,0,1,.28,2.84,4.28,4.28,0,0,1-2.45-2.13c-8.65-16.51-17.38-33-25.86-49.59a78,78,0,0,1-5.47-13.91c-3.51-12.22-8.71-23.71-14.09-35.17-4.31-9.18-8.2-18.55-12.32-27.81-.26-.59-1-1-1.44-1.46l-1,.36a55.42,55.42,0,0,0,.93,7.67c6.53,24.61,13.22,49.17,19.74,73.78,3.7,14,8,27.84,9.83,42.27a33.34,33.34,0,0,1,0,3.44c-2.51-2.48-2.5-5-2.86-7.34-2.42-15.62-7.67-30.28-14.79-44.33a232.56,232.56,0,0,1-17.82-47.59C1677.28,1678.42,1675.09,1672.15,1672.82,1664.73ZM562.4,1813.24,538.31,1744a468.34,468.34,0,0,1-89.39,92.73l.63,1.09Zm689.76-261.66c-.52,7-.67,13.65-1.59,20.22-2.52,17.78-5.37,35.52-8.08,53.28-2.15,14.15-4.33,28.29-4.61,42.64a36.21,36.21,0,0,0,.39,3.94c1.24-.66,2-1,2.66-1.43,19.6-12.55,32.45-30.07,39.33-52.29,2.67-8.63,2-16.32-3.13-23.7a29.73,29.73,0,0,1-2.07-4.15l.84-.54,6.44,6C1285.25,1578,1268.55,1553.69,1252.16,1551.58Zm142.39,246.58c-6.81-1.12-90.66-.69-94.36.5,1.59,6.41,3.13,12.86,4.81,19.27,2.7,10.28,5.34,20.59,8.32,30.81,2,6.85,8.08,8.5,13.61,4,1.14-.93,2.15-2,3.35-3.16,5.14,2.29,10.19,4.78,16.67,3.6-1.2-1.56-2-2.74-3-3.81-3.37-3.83-2.86-6.19,2-8.18,2.23-.91,4.57-1.57,7.21-2.46-.84-1.21-1.37-2-1.93-2.8-4.93-6.86-1.65-15.08,6.75-16.46a27.81,27.81,0,0,1,7.89,0c6.05.78,11.52-.2,16.48-4a85.81,85.81,0,0,1,8-5c2.81-1.71,5.67-3.36,8.51-5-.14-.3-.28-.61-.43-.91l-16.09,7.11c-.64-6.11.12-7.41,4.88-9.44C1389.71,1801.13,1392.53,1800.62,1394.55,1798.16Zm-63.37-19.74c-10.25-19.74-21.41-38.92-18.42-63l3.63,4.1a43.06,43.06,0,0,0,0-4.39c-.61-5-1.31-9.9-1.95-14.86-.82-6.39.32-12.26,4.66-17.28a10.93,10.93,0,0,0,1-1.8c-13.1,6.4-25.57,13.39-38,20.43-3.07,1.74-3.67,4.55-2.89,7.77q8.05,33.24,16.17,66.46c1,4.17,1.87,4.73,6.4,4.56,8.48-.33,17-.81,25.45-1.27A32.83,32.83,0,0,0,1331.18,1778.42Zm-91.69-58.19-15.84,4.5c-3.86,1.1-5.58,3.62-5.8,7.68-.76,14.3-1.76,28.58-2.63,42.88-.11,1.94,0,3.89,0,6h44.62C1248.83,1762.16,1245.76,1741,1239.49,1720.23Zm378.1,66.29c.12-1.58.23-2.39.24-3.2q0-19.23,0-38.47a7,7,0,0,0-.46-3.39c-.6-1-1.93-2.3-2.84-2.22-5.84.52-11.66,1.64-15.92,6.1-3.67,3.85-7,8-10.33,12.18-6.75,8.54-14.78,15.26-25.32,18.67-4.74,1.53-9.41,3.29-14.09,5a15.79,15.79,0,0,0-2.62,1.59l.24.93ZM376.38,1856.61l.52,1.19c18-5.19,36.12-10.23,54.09-15.66a21.46,21.46,0,0,0,11.11-7.61l-5.19,2-.31-.6,15.59-14.87-7.79-14.73c-1.33.32-2.3.48-3.23.77a85.2,85.2,0,0,0-22.25,11.11C402.92,1829,390.36,1843.6,376.38,1856.61Zm1161.3-56.95.16.83-10.31,4.7-11,5c.89,2.68,1.56,4.88,2.35,7,3.28,9,6.48,18.13,9.92,27.12a12.27,12.27,0,0,0,12.3,8.36c5-.14,8.33-3.08,10.35-9.22.2-.63.36-1.28.53-1.92,2.28-8.59,1.06-16.83-2.78-24.7-2.62-5.37-5.64-10.55-8.23-15.93-1.87-3.88-4.78-5.21-8.85-4.64-1.81.25-3.92-.12-5.17,2.85Zm-45.82-60.76c-5.74,6-28.46,37.95-29.3,41.3,9.44,0,18.79.08,28.14-.07l.15-1.13-6.19-2c3.06-3.78,4.42-4,7.12-.92,2.15,2.43,4.45,4.6,7.67,5.28a33.61,33.61,0,0,0,12.76,0c.23-1.87,0-3.51.67-4.62,1.46-2.47.82-4.54-.66-6.47-2.82-3.68-5.5-7.57-8.83-10.76-4.58-4.41-8-9.28-9.46-15.51A37.42,37.42,0,0,0,1491.86,1738.9Zm-490.49,29.51c-3.89-21-7.67-41.44-11.44-61.85a8.53,8.53,0,0,0-2.41,4.21c-2.21,8.71-4.31,17.44-6.54,26.15-2.75,10.74-6.7,20.93-13.79,29.66a8,8,0,0,0-.8,1.83ZM632.65,1656.29c-2.51,2.46-3.55,4.77-3.39,7.62.13,2.33,0,4.67.34,7,1.94,15.51,3.5,31.08,6.07,46.48,2.33,13.92,5.73,27.66,8.77,41.46,1.64,7.45,3.51,14.85,5.37,22.67l7.93-1.21c-.68-1.71-1.06-2.81-1.55-3.85a50.39,50.39,0,0,1-5.13-20.15,32.81,32.81,0,0,0-1.9-9.74,161.41,161.41,0,0,1-9.35-57.3C640,1678,637.3,1667.19,632.65,1656.29Zm-253,175.92c-4.4-.94-4.4-1-7.73.65a423.75,423.75,0,0,0-71,43.39c-.61.45-1.13,1-2.28,2.06a27.59,27.59,0,0,0,3.64,0c8-1.39,16-2.8,24.05-4.28a27.65,27.65,0,0,0,13.52-7.07q18-16.17,36.13-32.23A36.86,36.86,0,0,1,379.64,1832.21Zm233.84-26.76.28-1.06c-16.89-13.31-31-29.23-43.07-47l-.89.55,11.37,52.87Zm630.71-298c1.61.37,3.2.8,4.82,1.09a218.84,218.84,0,0,1,86.38,35.85c9.9,6.84,17.28,15.47,21.57,26.74.67,1.74,1.25,3.7,3.26,4.83a13.47,13.47,0,0,0-2-10.11,78.2,78.2,0,0,0-16.18-19.51c-6-5.27-11.92-10.63-17.94-15.88a114.86,114.86,0,0,0-44.72-24.45A55,55,0,0,0,1244.19,1507.47Zm-184.51,261.84c-4.41-10.85-25-47.73-27.74-49.77-1.1,3.74.53,45.65,2,49.77Zm163.87-106.53,1.11-.11c.16-.63.34-1.25.49-1.89,3.88-16.23,5.7-32.79,7.8-49.31,2.56-20.14,5.26-40.27,7.87-60.41a23.19,23.19,0,0,0,0-3.12,11.27,11.27,0,0,0-3.6,4.79,89.19,89.19,0,0,0-4.16,12.28c-2.41,10.88-4.86,21.78-6.55,32.79-3,19.78-4.65,39.71-3.51,59.76C1223.12,1659.31,1223.37,1661,1223.55,1662.78Zm-149.3,128.52c-1.67-7.07-9.57-14.84-16.08-15.83a4.18,4.18,0,0,0-3.13.81c-5.22,4.84-11.39,8-17.9,10.68-5.12,2.13-5.65,5-2.61,10.69Zm-611.09,17.22c1.54-1.47,3.14-2.88,4.61-4.41,14.17-14.76,28.21-29.63,42.49-44.27,7.92-8.12,11.68-18.63,17.34-28C514.73,1741.18,469.16,1794.8,463.16,1808.52Zm-109.55-266.3-.73-1c-1.49.63-3,1.21-4.45,1.88-16.71,7.65-32,17.52-46.65,28.63a109.74,109.74,0,0,0-27,30.39c-.68,1.1-1.23,2.29-1.93,3.6l3,2.14c2.71-3.83,5.47-7.34,7.8-11.12a50.13,50.13,0,0,1,11.84-13.34c6.39-5,12.58-10.29,18.74-15.59,1.71-1.47,3.23-2.65,5.68-2.45,3.2.28,5.67-1.55,8.06-3.4l20.17-15.52Q350.9,1544.36,353.61,1542.22Zm1261.14,163.72a18.06,18.06,0,0,0-2.58,1.31c-4.76,3.61-9.42,7.34-14.24,10.86-2.62,1.92-3.31,4.33-2.94,7.38.59,4.88,2.1,9.32,6,13l16.4-4.2C1616.48,1724.78,1615.64,1715.62,1614.75,1705.94ZM912.07,1832.8c-.14-.42-.28-.84-.41-1.25-4,.56-8.18.65-12,1.78-5.89,1.74-6.89,7.3-2.45,11.52a9.08,9.08,0,0,0,7.8,2.54,145.63,145.63,0,0,0,16.62-3.1,17,17,0,0,0,9.71-6.8c-2.34-.36-4-.73-5.78-.89-5-.44-9.93-.8-14.9-1.23-.2,0-.36-.4-.6-.66Zm-49.41-59.44,9,.81c-.6-1.54-1-2.6-1.63-4.14,6.52-.31,12.77.54,19.44-2.88l-34.52-12c-3.95,7.06-2.32,10.9,5.44,13.91l3.43-3.64C863.35,1768.44,863,1770.7,862.66,1773.36Zm568.77-159.14c2.76.62,3.31,2,3.18,4a6.59,6.59,0,0,0,3.15,5.89c6.46,4.52,13.74,5.58,22.51,5.49-5.78-7.77-11.43-13.79-19.94-16.38A10,10,0,0,0,1431.43,1614.22Zm-138.27-40.35c1.63,11.12,3.08,21,4.53,30.82h1c2.09-6.6,4.3-13.16,6.21-19.81,1-3.35.23-4.84-2.83-6.63C1299.55,1576.77,1296.82,1575.64,1293.16,1573.87Zm339,213.21c-2.58-19.92-5-39-7.52-58a2,2,0,0,0-.64,1.47q1.47,25.95,3,51.88C1627.15,1785,1628.69,1786.14,1632.19,1787.08ZM343.67,1742.23c-4-4.57-7.22-8.52-10.72-12.24-.76-.8-2.4-.75-4-1.21-2.43-3.15-3.72-7.72-7.3-11.12C319.58,1729,331.38,1742.45,343.67,1742.23Zm79.55-227.47c-2.71-2.49-4.77-2.49-7.2-1.59-11.53,4.25-23.11,8.35-34.65,12.55a14.6,14.6,0,0,0-2.58,1.65l.48,1.08C393.75,1524.26,408.07,1519.53,423.22,1514.76Zm-154.88,95.52c-8.77,8.74-16.75,30.55-14.63,39.47Zm1407.06-37.41c-.5,7.05-1.84,13.53-1.44,20.68,4.72-3.11,9.15-5.87,8.84-11.62C1682.57,1577.74,1679.66,1575,1675.4,1572.87ZM391.55,1818.35c10.94-.92,21.48-6.24,24.48-11.38-4-1.56-5.62-1.88-7.9-.34C402.51,1810.41,397.07,1814.43,391.55,1818.35Zm454.38-57.67c-3.1-7.91-9.3-19-12.37-21.52,1.06,6.16,1.76,11.73,3.05,17.16C837.75,1761.14,840.21,1762.13,845.93,1760.68Zm-395-25c-13.2,2.33-27.63,6.48-30.33,8.88C431.68,1745.23,442.11,1745.32,450.89,1735.7Zm521.66,74.83.32,1,32.46-7.57c-.42-1.86-.73-3.22-1.17-5.18ZM501.42,1646.18l1.25-.31c1-11.86-1-22.91-9.21-32.32a25.68,25.68,0,0,0,1.32,7.68c1.31,4.07.73,8.91,4.91,11.87.59.42.53,1.85.65,2.83C500.73,1639.34,501.06,1642.76,501.42,1646.18Zm825-87.33.74-.87c-2.65-8.33-13.49-16.91-22.46-17.19Zm-1053,210.49,1-.56a20.58,20.58,0,0,0-8.31-15.25c-1.51,2.45-2.79,4.53-4.24,6.9Zm281.66-127.89-1.15,0c-1.25,7.12-2.7,14.21-3.63,21.38-.4,3,1.23,5.58,4.78,7.25Zm519.58,50-1.23.61c4.36,15.83,8.69,31.66,14,47.22-3-15.56-7.62-30.72-11.66-46A7.3,7.3,0,0,0,1074.66,1691.4Zm252-2.44,8.82-25.37A22.29,22.29,0,0,0,1326.62,1689Zm-126.83,34.56c-2.7,1.47-2.92,3.72-2.92,6.06,0,9.78,0,19.56.08,29.35,0,1.48.17,3,.26,4.43C1198.41,1750.08,1200.15,1736.89,1199.79,1723.52ZM652,1793.65c1.72,7.63,5.64,8.77,13.59,4.21C662.56,1791.75,659.45,1790.73,652,1793.65Zm186.1-62-1.08,1c3.35,6.42,6.6,12.88,10.1,19.21.81,1.46,1,4.79,3.75,3.35,2-1.05,1-3.86,0-5.36C846.78,1743.61,842.39,1737.65,838.1,1731.61Zm52-100.89,9.17,8.38c5.42-2.07,5.42-2.07,7.42-4.22C897.22,1631.57,893.78,1629.53,890.06,1630.72Zm-508.82,133.6c-6.9-2.25-22.53-4.34-26-3.52.24.43.4,1.12.69,1.17,7.79,1.45,15.6,2.86,23.42,4.13C379.8,1766.18,380.48,1765.05,381.24,1764.32ZM617.47,1638.1h1.46c.59-5.43,1.22-10.86,1.69-16.3.06-.72-.77-1.5-1.34-2.53-2.21,1.74-4.26,3.23-4,5.8C615.79,1629.44,616.73,1633.76,617.47,1638.1Zm712-80.14c1.55,4.16,9.29,15.08,12.24,17.3C1341.77,1569.27,1335.52,1560.44,1329.43,1558Zm-667,231a27.69,27.69,0,0,0-12.56-5.53c.45,2.95.8,5.3,1.19,7.89Zm809.37,6.14v1.14a31.32,31.32,0,0,0,22.94-2.42ZM369.49,1582.78c3.57.81,22.16-5.33,25.29-8.27A213.43,213.43,0,0,0,369.49,1582.78Zm1105.66,44.83c-1-8.78-3.43-11.86-9.16-12ZM1047,1819.46c-7.06-.14-21.87,4.14-23.94,6.9Zm308.63-205.59c5.14-5.37,5.3-8.25,1.09-12.58C1356.34,1605.38,1356,1609.09,1355.6,1613.87Zm-177-60.59h0v26.82h0ZM1006.78,1830c0-.33,0-.66,0-1-4.48-.15-16.59,3-19.54,5.45Zm-570.64-25.89c4.44-.86,10.73-5.89,11.49-9.24A89,89,0,0,0,436.14,1804.14Zm783.18-82,12.21-2.75C1224,1718.31,1221.92,1718.75,1219.32,1722.12Zm326.17,37.5-9.26-1.15C1540.9,1763.39,1541.32,1763.45,1545.49,1759.62ZM417.6,1747.46h-15C407.5,1749.46,412.44,1749.25,417.6,1747.46Zm1394.1,133.29c-.78,3.22-.5,3.74,3,6.68Z" transform="translate(-195 -1404.47)"/><path class="cls-1" d="M526.76,1519c2-3.46.52-4.93-1.28-6.64-5.12-4.88-5.31-9.34-1-15a35,35,0,0,0,2.63-3c.81-1.36,1.79-2.92,1.79-4.39,0-4.43,2-7.58,5.89-9,5.64-2,7.2-5.8,6.26-11.3a37.48,37.48,0,0,1,0-5.58c-2.08.21-3.81.46-5.55.55a7,7,0,0,1-6.77-3.42c-2.22-3.52-1.42-7.61,2.51-9.21,3.78-1.54,8-2.23,12-3a3.44,3.44,0,0,1,3.89,2.5c1.06,3,3.31,3.82,6.16,4.18,2.46.31,4.85,1.26,7.31,1.53a24,24,0,0,0,6.83-.16c4.2-.78,5-.23,4.72,4.22a51.85,51.85,0,0,0-.25,6,24.23,24.23,0,0,0,1.12,4.39c1.22-.28,2-.41,2.77-.65a13.31,13.31,0,0,1,13.47,2.92,23.74,23.74,0,0,1,2.21,2c3.06,3.49,6.54,5.55,11.35,3.74.4-.14.95.12,1.8.26.16,1.57.31,3.17.49,5l-4.54,1.59a56.91,56.91,0,0,1-2.91,6.39c-1.88,3.12-2.57,6.09.54,9.5-3.67,1.06-6.81,2-10,2.84-.56.15-1.73,0-1.82-.29-.92-2.91-3.14-1.72-5-1.69-3.66.06-7.34-.06-11,.25-7.21.6-13-6.12-12.58-12.52.06-.81,0-1.64,0-2.88l-7.85-2.14c.16,2.28.28,4,.4,5.74A6.83,6.83,0,0,1,548,1498c-1.74,1.57-2.77,4-3.78,6.27a34.16,34.16,0,0,0-1.37,5.31c-.86,3.27-2.55,5.62-6.17,6.42C533.68,1516.62,530.77,1517.77,526.76,1519Z" transform="translate(-195 -1404.47)"/><path class="cls-1" d="M511,1497.45c-2-2.67-4.41-2.32-6.82-.68s-4.61,1-6.9-.42c-8-4.84-12.72-15.29-11-24.47,1.44-7.47,8.55-13.73,16.52-14.39,6-.49,11.75.11,15.67,5.48a21.46,21.46,0,0,1,2.66,5.28c1.23,3.44,2.27,6.94,3.25,10.45.34,1.2.79,2.85.26,3.73C521.16,1488.24,517.93,1494.36,511,1497.45Z" transform="translate(-195 -1404.47)"/><path class="cls-1" d="M316.68,1529.19c-7.69-.4-12.88-3.23-16.47-8.82a18,18,0,0,1-1.3-2.69c-3-7-3-7,1.39-13.39a29.22,29.22,0,0,0,2-2.88c3.58-6.74,9.8-8.06,16.56-7.8,5.89.22,12.84,6.65,14.26,13,.53,2.37,1.46,5.46.45,7.2-2.69,4.66-4.8,10-10,12.74A55.88,55.88,0,0,1,316.68,1529.19Z" transform="translate(-195 -1404.47)"/><path class="cls-1" d="M602.84,1442.67c-3,.89-5.54,1.61-8.05,2.39-5.68,1.76-11,0-15-5.1a15.2,15.2,0,0,1-.64-17.31,14.12,14.12,0,0,1,14.28-6.16c7.12,1.47,12.55,10,10.94,17C603.64,1436.49,603.32,1439.62,602.84,1442.67Z" transform="translate(-195 -1404.47)"/><path class="cls-1" d="M518.5,1412.87a7.75,7.75,0,0,1-8.07,7.19,7.65,7.65,0,0,1-7.61-7.64c.15-4.32,4.48-8.29,8.65-7.93C515.31,1404.82,518.7,1408.85,518.5,1412.87Z" transform="translate(-195 -1404.47)"/><path class="cls-1" d="M807.32,1772.22l23.07-4,.23,1.32c-7.55,2.06-15.37,2.69-23.06,4Z" transform="translate(-195 -1404.47)"/><path class="cls-1" d="M495.41,1430.13l-3.18-5.22c3.33-3,3.33-3,6.79.57C498,1426.77,497,1428.12,495.41,1430.13Z" transform="translate(-195 -1404.47)"/><path class="cls-1" d="M555.64,1510.14l3,7.33c-3.14-.52-4.88-2.77-7.58-4.62Z" transform="translate(-195 -1404.47)"/><path class="cls-1" d="M1378.7,1856.7l-6.23-6.64C1377.18,1850.26,1378.76,1851.79,1378.7,1856.7Z" transform="translate(-195 -1404.47)"/><path class="cls-1" d="M205.53,1658.37c3.78,1.08,3.78,1.08,4.87,4.9C207.26,1663.35,207,1660.89,205.53,1658.37Z" transform="translate(-195 -1404.47)"/><path class="cls-1" d="M1568,1736.53l5-3-.09-.1-5,3Z" transform="translate(-195 -1404.47)"/><ellipse class="cls-1" cx="983.58" cy="162.21" rx="0.04" ry="18.95"/><path class="cls-1" d="M1696.25,1690.6c8.47,18.88,13.28,39,19.65,58.59l-1.11.38-19.94-58.29Z" transform="translate(-195 -1404.47)"/><path class="cls-1" d="M410.85,1841.24a46.25,46.25,0,0,1,15.13-4.46A40.85,40.85,0,0,1,410.85,1841.24Z" transform="translate(-195 -1404.47)"/></svg>