<svg id="レイヤー_1" data-name="レイヤー 1" xmlns="http://www.w3.org/2000/svg" viewBox="0 0 75.81 80.63"><defs><style>.cls-1{fill:#22bfd2;}</style></defs><title>logo</title><path class="cls-1" d="M346.87,283c9.48,9.51,10.53,15.91,5,27.48-1.19,2.51-2.68,3.85-5.53,4.22q-29.21,3.81-58.37,7.9c-2.72.38-4,.46-3.19-3.11q8-37,15.49-74.16c.51-2.52,1.62-3.19,4-3.16,11.16.13,22.35-.29,33.48.31,6.54.35,13.08,2.66,17.74,7.43,7.46,7.63,6,21.79-2.32,28.6C351.29,280.1,349.17,281.41,346.87,283Z" transform="translate(-284.58 -242.18)"/></svg>